<?xml version="1.0" standalone="no"?>
<!DOCTYPE svg PUBLIC "-//W3C//DTD SVG 1.1//EN" "http://www.w3.org/Graphics/SVG/1.1/DTD/svg11.dtd" >
<svg xmlns="http://www.w3.org/2000/svg">
<metadata></metadata>
<defs>
<font id="betonef_extraboldregular" horiz-adv-x="1024" >
<font-face units-per-em="2048" ascent="1638" descent="-410" />
<missing-glyph horiz-adv-x="512" />
<glyph horiz-adv-x="2048" />
<glyph horiz-adv-x="2048" />
<glyph unicode="&#xd;" horiz-adv-x="681" />
<glyph unicode=" "  horiz-adv-x="512" />
<glyph unicode="&#x09;" horiz-adv-x="512" />
<glyph unicode="&#xa0;" horiz-adv-x="512" />
<glyph unicode="!" horiz-adv-x="636" d="M68 186.5q0 98.5 64.5 155.5t162.5 57t161.5 -58t63.5 -154.5t-63.5 -155t-161.5 -58.5t-162.5 57.5t-64.5 156zM156 473v893h440l-172 -893h-268z" />
<glyph unicode="&#x22;" horiz-adv-x="845" d="M84 1366h295l-51 -549h-195zM467 1366h295l-49 -549h-197z" />
<glyph unicode="#" horiz-adv-x="1228" d="M12 373l37 239h207l29 170h-207l37 238h207l55 346h270l-57 -346h174l55 346h273l-56 -346h205l-37 -238h-205l-26 -170h207l-35 -239h-209l-59 -373h-275l62 373h-175l-59 -373h-270l61 373h-209zM526 612h174l27 170h-174z" />
<glyph unicode="$" horiz-adv-x="1161" d="M51 934q0 184 116 288.5t306 116.5v168h227v-192q53 -12 121 -51l35 45h164v-396h-199q-61 223 -274 224q-59 0 -105.5 -23.5t-46.5 -77.5q0 -35 17.5 -59.5t45 -36.5t59.5 -22.5t58 -16.5q82 -16 223.5 -63t198.5 -107q111 -115 111 -287q0 -102 -47 -192t-133 -146 q-80 -51 -228 -77v-189h-227v197q-100 23 -203 72l-34 -60h-177v428h211q18 -109 105.5 -172t199.5 -63q74 0 138.5 29.5t64.5 93.5q0 41 -30.5 68.5t-70.5 35.5t-77 20q-74 18 -309 95q-117 35 -178.5 129t-61.5 221z" />
<glyph unicode="%" horiz-adv-x="1449" d="M27 1063q0 145 96 230t243.5 85t244 -85t96.5 -230t-96.5 -230t-244 -85t-243.5 85t-96 230zM98 0l1014 1366h244l-1018 -1366h-240zM297 1065q0 -117 73.5 -116.5t73.5 104.5q0 119 -73.5 118.5t-73.5 -106.5zM743 303.5q0 145.5 96.5 230t244 84.5t243.5 -84.5t96 -230 t-96 -231.5t-243.5 -86t-244 86t-96.5 231.5zM1014 305q0 -117 73.5 -116.5t73.5 104.5q0 119 -73.5 119t-73.5 -107z" />
<glyph unicode="&#x26;" horiz-adv-x="1437" d="M41 303q0 143 113 250q53 47 155 92q-106 117 -106 256q0 158 112.5 250t274.5 92q150 0 262.5 -79t112.5 -222q0 -160 -146 -266l146 -154q94 86 94 111q0 29 -58 29v251h396v-251q-72 -10 -125 -64l-191 -197l121 -125h195v-272h-471l-123 123q-176 -172 -385 -172 q-156 0 -266.5 97.5t-110.5 250.5zM418 371q0 -49 40 -85t89 -36q51 0 100 39l-172 174q-57 -39 -57 -92zM584 950q0 -25 17 -51.5t29.5 -36.5t43.5 -35q74 62 74 119q0 39 -23 61.5t-61 22.5q-35 0 -57.5 -22.5t-22.5 -57.5z" />
<glyph unicode="'" horiz-adv-x="460" d="M84 1366h295l-51 -549h-195z" />
<glyph unicode="(" horiz-adv-x="716" d="M61 555q0 395 195 727q8 14 25.5 42t25.5 42h254q-61 -221 -90 -485q-20 -180 -20 -326q-1 -430 110 -809h-254q-137 213 -194 430q-51 193 -52 379z" />
<glyph unicode=")" horiz-adv-x="716" d="M158 -254q109 403 108 809q0 360 -80 698q-4 18 -14 56.5t-14 56.5h252q78 -121 118.5 -210t77.5 -222q49 -184 49 -379q0 -436 -245 -809h-252z" />
<glyph unicode="*" horiz-adv-x="966" d="M68 1028l61 186l256 -84v269h195v-269l258 84l59 -186l-256 -82l160 -221l-160 -115l-160 221l-157 -221l-160 115l160 221z" />
<glyph unicode="+" d="M68 573v246h311v314h266v-314h311v-246h-311v-313h-266v313h-311z" />
<glyph unicode="," horiz-adv-x="649" d="M25 -260l153 629h416l-307 -629h-262z" />
<glyph unicode="-" horiz-adv-x="536" d="M0 328v311h537v-311h-537z" />
<glyph unicode="." horiz-adv-x="649" d="M98 186q0 96 63.5 154.5t162 58.5t163 -57t64.5 -155.5t-64.5 -156t-163 -57.5t-162 57.5t-63.5 155.5z" />
<glyph unicode="/" horiz-adv-x="937" d="M0 -246l608 1612h262l-612 -1612h-258z" />
<glyph unicode="0" horiz-adv-x="1161" d="M47 682q0 141 26.5 260t85 220.5t166 158.5t255.5 57q150 0 257 -57t165.5 -158.5t85 -219.5t26.5 -261q0 -141 -26.5 -260t-85 -220.5t-167 -158.5t-255.5 -57q-119 0 -212.5 38.5t-152.5 103.5t-98 156t-54.5 189t-15.5 209zM471 682q0 -111 6 -164q10 -182 104.5 -182 t104.5 182q6 53 6 164t-6 164q-10 182 -104.5 182t-104.5 -182q-6 -53 -6 -164z" />
<glyph unicode="1" horiz-adv-x="1161" d="M272 1028v223l557 133v-1124h113v-260h-639v260h105v768h-136z" />
<glyph unicode="2" horiz-adv-x="1161" d="M47 971q0 205 147.5 306t360.5 101q225 0 361.5 -120.5t136.5 -342.5q0 -98 -49.5 -196t-123 -175t-158.5 -155t-157 -133h236q68 0 89 29.5t30 103.5h149v-389h-1008v256q180 106 308 233q260 260 260 461q0 66 -39 107t-105 41q-55 0 -96 -38t-41 -93q0 -68 70 -117 l-205 -207q-86 80 -126 151.5t-40 176.5z" />
<glyph unicode="3" horiz-adv-x="1161" d="M82 59v295q139 -102 297 -102q102 0 180 44t78 138t-69.5 141.5t-168.5 47.5q-59 0 -141 -15v148l383 352h-279q-123 0 -104 -121h-176v379h956v-258l-303 -270q143 -25 211 -82q131 -111 131 -328q0 -117 -46 -206t-127 -138t-177 -73.5t-209 -24.5q-227 0 -436 73z" />
<glyph unicode="4" horiz-adv-x="1161" d="M55 432v219l494 715h371v-715h186v-219h-186v-172h106v-260h-592v260h115v172h-494zM305 651h244v353z" />
<glyph unicode="5" horiz-adv-x="1161" d="M162 39v264q96 -51 203 -51q102 0 175.5 43t73.5 137q0 104 -76.5 153.5t-187.5 49.5q-92 0 -188 -39v770h827v-279h-555v-192q76 16 139 16q225 0 365.5 -126t140.5 -347q0 -129 -51 -221t-142 -140t-193.5 -69.5t-225.5 -21.5q-154 0 -305 53z" />
<glyph unicode="6" horiz-adv-x="1161" d="M59 461q0 160 125 387l289 518h467l-297 -463h59q186 0 294 -105.5t108 -291.5q0 -236 -142.5 -378t-377.5 -142q-227 0 -376 126t-149 349zM487 471q0 -41 6.5 -77t31 -70.5t63.5 -34.5q92 -1 92 192q0 217 -100 217q-92 0 -93 -227z" />
<glyph unicode="7" horiz-adv-x="1161" d="M74 0l577 1096h-245q-96 0 -123 -19.5t-27 -107.5h-182v397h1016v-270l-555 -1096h-461z" />
<glyph unicode="8" horiz-adv-x="1161" d="M51 416q0 129 56.5 196.5t185.5 124.5q-104 68 -146.5 126.5t-42.5 168.5q0 125 75 207t175.5 110.5t225.5 28.5q90 0 169.5 -17.5t150.5 -54t113 -106.5t42 -166q0 -113 -40 -171t-147 -126q129 -57 184.5 -123.5t55.5 -197.5q0 -219 -143.5 -324.5t-370.5 -105.5 q-293 0 -426 133q-117 117 -117 297zM475 406q0 -211 105 -211q106 0 106 211q0 209 -106 208q-104 0 -105 -208zM485 997q0 -180 95 -180q96 0 96 180q0 182 -96 183q-94 0 -95 -183z" />
<glyph unicode="9" horiz-adv-x="1161" d="M57 866q0 233 146.5 372.5t382.5 139.5q217 0 367.5 -128t150.5 -341q0 -150 -119 -368l-293 -541h-469l291 463h-35q-199 0 -310.5 103.5t-111.5 299.5zM485 877q0 -205 97 -205q92 0 92 209q0 199 -99 198q-90 0 -90 -202z" />
<glyph unicode=":" horiz-adv-x="649" d="M98 186.5q0 98.5 64.5 155.5t163 57t162 -58t63.5 -154.5t-63.5 -155t-162 -58.5t-163 57.5t-64.5 156zM98 710.5q0 98.5 64.5 157t163 58.5t162 -59.5t63.5 -156t-63.5 -154.5t-162 -58t-163 57t-64.5 155.5z" />
<glyph unicode=";" horiz-adv-x="649" d="M25 -260l153 629h416l-307 -629h-262zM168 698.5q0 96.5 63.5 154.5t162 58t163 -57t64.5 -155.5t-64.5 -157t-163 -58.5t-162 59.5t-63.5 156z" />
<glyph unicode="&#x3c;" d="M68 573v224l888 450v-262l-608 -301l606 -303l2 -262z" />
<glyph unicode="=" d="M68 403v232h888v-232h-888zM68 758v231h888v-231h-888z" />
<glyph unicode="&#x3e;" d="M68 119v264l608 301l-606 301l-2 262l888 -452v-224z" />
<glyph unicode="?" horiz-adv-x="909" d="M55 1008v282q186 102 365 103q207 0 335 -116t128 -321q0 -227 -150.5 -358t-380.5 -131q-49 0 -121 14v283q31 -16 72 -16q84 0 128 55t44 141q0 74 -32.5 126t-102.5 52q-104 0 -109 -114h-176zM174 186.5q0 96.5 63.5 154.5t162 58t163 -57t64.5 -155.5t-64.5 -156 t-163 -57.5t-162 58.5t-63.5 155z" />
<glyph unicode="@" horiz-adv-x="1501" d="M68 670q0 303 208.5 511t511.5 208q270 0 458 -168.5t188 -434.5q0 -102 -35 -200q-41 -109 -121 -190t-180 -81q-53 0 -99.5 30t-60.5 81q-43 -61 -111.5 -95t-142.5 -34q-127 0 -208 95t-81 226q0 154 103.5 282t255.5 128q135 0 198 -98l15 78l182 -2l-76 -388 q-12 -57 -12 -90q0 -63 45 -63t92 65q76 106 76 256q0 201 -137.5 320t-339.5 119q-233 0 -392 -162t-159 -395q0 -164 87 -304.5t236 -191.5q98 -33 230 -33q178 0 368 62l41 -164q-190 -61 -415 -62q-315 0 -508 183q-104 98 -160.5 233t-56.5 279zM604 627 q0 -61 35 -102.5t94 -41.5q76 0 125 67.5t49 145.5q0 59 -35.5 100.5t-93.5 41.5q-76 0 -125 -66.5t-49 -144.5z" />
<glyph unicode="A" horiz-adv-x="1382" d="M-6 0v301q33 -4 49 -4q23 0 42 8t31.5 22.5t23 34t16.5 40l12 41t10 38.5l225 885h570l282 -1065h134v-301h-721v301h110l-37 148h-274q-10 -51 -10 -66q0 -39 21.5 -62.5t60.5 -23.5q10 0 34 4v-301h-579zM520 715h152l-80 327z" />
<glyph unicode="B" horiz-adv-x="1390" d="M59 0v301h131v764h-131v301h793q188 0 311 -86t123 -266q0 -115 -49 -183.5t-158 -123.5q277 -81 277 -345q0 -174 -119 -268t-299 -94h-879zM643 301h86q74 0 113 27.5t39 97.5q0 72 -35 97.5t-109 25.5h-94v-248zM643 840h86h2q141 0 141 116q0 68 -40.5 88.5 t-116.5 20.5h-72v-225z" />
<glyph unicode="C" horiz-adv-x="1269" d="M51 674q0 190 57.5 348t192.5 264.5t330 106.5q92 0 156.5 -18.5t132.5 -69.5l24 61h262v-557h-248q2 16 3 51q0 94 -52.5 156.5t-144.5 62.5q-80 0 -128 -45t-60.5 -109.5t-17.5 -138.5q-2 -33 -2 -64q0 -37 3 -69q0 -74 2 -113.5t18.5 -103t51.5 -98.5q57 -59 141 -59 q102 0 141 55t45 166h248v-340q-100 -82 -227 -129q-166 -57 -320 -58q-203 0 -343 96.5t-202.5 250t-62.5 354.5z" />
<glyph unicode="D" horiz-adv-x="1507" d="M59 0v301h131v764h-131v301h680q332 0 524.5 -177t192.5 -507q0 -309 -185.5 -495.5t-494.5 -186.5h-717zM653 301q66 2 91.5 4t62.5 21.5t65 60.5q74 108 74 303q0 317 -164 363q-43 12 -129 12v-764z" />
<glyph unicode="E" horiz-adv-x="1202" d="M59 0v301h131v764h-131v301h1061v-539h-215l-71 238h-181v-221h181v-297h-181v-246h193l59 295h232v-596h-1078z" />
<glyph unicode="F" horiz-adv-x="1136" d="M59 0v301h131v764h-131v301h1055v-557h-227l-64 256h-170v-227h170v-295h-170v-242h129v-301h-723z" />
<glyph unicode="G" horiz-adv-x="1423" d="M51 690q0 307 184.5 505t489.5 198q180 0 279 -86l30 59h271v-575h-244v26q0 113 -59.5 185.5t-167.5 72.5q-272 0 -273 -420q0 -387 260 -387q68 0 114 31t46 96q0 74 -76 74q-29 0 -55 -6v262h508v-725h-230l-30 76q-123 -102 -336 -103q-305 0 -481 158 q-111 98 -170.5 249.5t-59.5 309.5z" />
<glyph unicode="H" horiz-adv-x="1542" d="M59 0v301h131v764h-131v301h676v-301h-82v-236h236v236h-82v301h674v-301h-129v-764h129v-301h-674v301h82v231h-236v-231h82v-301h-676z" />
<glyph unicode="I" horiz-adv-x="870" d="M74 0v301h129v764h-129v301h723v-301h-129v-764h129v-301h-723z" />
<glyph unicode="J" horiz-adv-x="1052" d="M-6 0v532h252q-1 -16 -1 -33t1 -37q2 -38 8 -73t30.5 -59.5t65.5 -24.5q49 0 69.5 43t20.5 98v619h-129v301h723v-301h-129v-662q0 -229 -133 -335q-117 -94 -287 -95q-154 0 -239 95l-31 -68h-221z" />
<glyph unicode="K" horiz-adv-x="1544" d="M59 0v301h131v764h-131v301h707v-301h-111v-346l244 346v301h518v-301h-125l-254 -326l379 -438h125v-301h-643v301l-244 309v-309h111v-301h-707z" />
<glyph unicode="L" horiz-adv-x="1144" d="M59 0v301h131v764h-131v301h723v-301h-129v-764h170l74 293h225v-594h-1063z" />
<glyph unicode="M" horiz-adv-x="1984" d="M59 0v301q8 -2 23 -2q109 0 108 152v614h-131v301h664l276 -661l228 661h698v-301h-131v-764h131v-301h-698v301h104v539l-303 -840h-225l-352 840v-373q0 -51 4 -82t28.5 -59.5t71.5 -28.5q10 0 35 4v-301h-531z" />
<glyph unicode="N" horiz-adv-x="1540" d="M59 0v301q4 0 11.5 -1t11.5 -1q74 0 97.5 36t23.5 116v614h-131v311h598l438 -856v391q0 98 -22.5 126t-114.5 28v301h526l-2 -301q-4 0 -12 1t-13 1q-37 0 -59 -18.5t-30.5 -55.5t-10.5 -60.5t-2 -66.5v-866h-500l-403 774v-301q0 -43 4 -72.5t17.5 -58.5t41.5 -39 q16 -6 37 -6q17 0 37 4v-301h-543z" />
<glyph unicode="O" horiz-adv-x="1495" d="M51 686q1 310 193 508q192 199 503.5 199t504 -199t192.5 -510q0 -309 -193 -514q-186 -197 -503 -197q-319 0 -506 197q-191 204 -191 516zM561 588v-18q-1 -44 7 -88q10 -54 26 -98t56 -72.5t98 -28.5q41 0 72.5 15t51 41t33 58.5t18.5 70.5t9 76q3 25 3 50q0 12 -1 24 q-1 18 -1 34t1 30q-1 14 -1 30t1 34q1 12 1 25q0 24 -3 50q-4 39 -9 76t-18.5 70.5t-33 59.5t-51.5 41t-72 15q-57 0 -97.5 -28.5t-56.5 -72.5t-26 -100q-8 -46 -7 -88v-18q1 -26 1 -49t-1 -45q1 -22 1 -45t-1 -49z" />
<glyph unicode="P" horiz-adv-x="1343" d="M59 0v301h131v764h-131v301h789q127 0 219 -25.5t164 -103.5q102 -112 102 -307q0 -334 -270 -420q-84 -27 -204 -30q-51 -1 -97 -1q-60 0 -109 2v-180h131v-301h-725zM653 778h39q86 0 129 31t43 110.5t-41 112.5t-123 33h-47v-287z" />
<glyph unicode="Q" horiz-adv-x="1488" d="M51 680q0 315 187.5 514t501 199t505.5 -195q193 -193 193 -498q0 -121 -24.5 -205.5t-86.5 -193.5h111v-311l-520 10q-2 0 -56 -14q-57 -12 -139 -13q-301 0 -486.5 202t-185.5 505zM557 618q-1 -12 -1 -24q0 -25 3 -50q4 -38 9 -76t18.5 -70.5t33 -58.5t51 -41 t72.5 -15q57 0 97.5 28.5t56.5 72.5t25 98q8 46 8 88v18q-1 26 -1 49t1 45q-1 22 -1 45t1 49v18q0 43 -8 88q-9 56 -25 100t-56 72.5t-98 28.5q-41 0 -72.5 -15t-51 -41t-33 -59.5t-18.5 -70.5t-9 -76q-3 -26 -3 -50q0 -13 1 -25q1 -17 1 -33.5t-1 -30.5q1 -14 1 -30.5 t-1 -33.5z" />
<glyph unicode="R" horiz-adv-x="1458" d="M59 0v301h131v764h-131v301h854q78 0 126 -4t110.5 -27.5t105.5 -66.5q111 -117 111 -293q0 -246 -229 -340l245 -334h93v-301h-435l-395 651v-350h105v-301h-691zM645 780h53q193 1 193 144q0 86 -46 113.5t-140 27.5h-60v-285z" />
<glyph unicode="S" horiz-adv-x="1060" d="M35 954q0 195 99 317t288 122q160 0 262 -95l25 68h233v-451h-256q-41 174 -188 175q-31 0 -53.5 -17.5t-22.5 -46.5q0 -41 45 -69.5t112.5 -44t147.5 -49.5t147.5 -79t112.5 -136t45 -218q0 -188 -115.5 -322.5t-302.5 -134.5q-158 0 -256 121l-32 -94h-260v453h260 q84 -160 206 -160q37 0 65 20.5t28 55.5q0 41 -44 66.5t-109.5 37.5t-141.5 42t-141.5 73t-109.5 138t-44 228z" />
<glyph unicode="T" horiz-adv-x="1255" d="M23 813v553h1210v-553h-227l-56 252h-90v-764h146v-301h-740v301h129v764h-88l-63 -252h-221z" />
<glyph unicode="U" horiz-adv-x="1384" d="M39 1065v301h725v-301h-131v-465q0 -57 1 -86t10 -81t25.5 -79.5t51.5 -50t86 -22.5q168 0 168 233v551h-131v301h520v-301h-129v-535q0 -152 -26.5 -239.5t-121.5 -175.5q-156 -141 -387 -142q-266 0 -398 139.5t-132 407.5v545h-131z" />
<glyph unicode="V" horiz-adv-x="1392" d="M-6 1065v301h721v-301h-97l168 -639l127 401q33 109 33 156q0 25 -6 41t-16.5 24.5t-25.5 11.5t-32.5 4t-38.5 1v301h572v-301h-29q-33 0 -56.5 -10.5t-40 -35t-23.5 -40.5t-18 -55t-15 -54l-304 -870h-479l-301 1065h-139z" />
<glyph unicode="W" horiz-adv-x="2068" d="M-6 1065v301h733v-301h-135l143 -510l232 811h315l227 -811l113 410q10 47 10 51q0 12 -4 21.5t-12 14.5t-18.5 8t-20.5 4t-21.5 1h-19.5v301h539v-301h-29q-33 0 -55.5 -9t-37 -24.5t-24.5 -37t-17 -47t-16 -54.5l-247 -893h-443l-170 602l-170 -602h-448l-299 1065 h-125z" />
<glyph unicode="X" horiz-adv-x="1517" d="M-6 0v301q18 -2 55 -2q53 0 97 24.5t68 50t65 81.5l208 282l-305 328h-114v301h735v-301h-80l154 -166q14 16 46.5 63.5t32.5 69.5q0 18 -14 26.5t-31.5 7.5t-31.5 -1v301h618v-301q-8 0 -25.5 1t-25.5 1q-76 0 -115 -26.5t-94 -98.5l-180 -237l370 -404h97v-301h-756 v301h121l-223 240q-111 -152 -111 -189q0 -53 90 -53q17 0 37 2v-301h-688z" />
<glyph unicode="Y" horiz-adv-x="1306" d="M-6 1065v301h711v-301h-80l159 -236l27 48q25 45 49.5 94t24.5 59q0 20 -19.5 28.5t-42 7.5t-41.5 -1v301h531v-301q-41 4 -60 4q-66 0 -100.5 -28.5t-71.5 -98.5l-180 -342v-299h133v-301h-729v301h131v260l-352 504h-90z" />
<glyph unicode="Z" horiz-adv-x="1247" d="M35 0v287l579 778h-284l-64 -274h-231v575h1163v-287l-584 -778h281l78 313h239v-614h-1177z" />
<glyph unicode="[" horiz-adv-x="751" d="M96 -254v1620h512v-254h-137v-1112h137v-254h-512z" />
<glyph unicode="\" d="M55 1536h260l621 -1706h-260z" />
<glyph unicode="]" horiz-adv-x="751" d="M143 0h138v1112h-138v254h512v-1620h-512v254z" />
<glyph unicode="^" d="M10 684l328 690h348l330 -690h-279l-225 477l-225 -477h-277z" />
<glyph unicode="_" d="M0 -94h1024v-240h-1024v240z" />
<glyph unicode="`" horiz-adv-x="786" d="M137 1364h389l125 -371h-284z" />
<glyph unicode="a" horiz-adv-x="1081" d="M31 276q0 135 107.5 212t246.5 77q131 0 221 -63q0 6 1 19.5t1 19.5q0 133 -184 133q-119 0 -178 -78h-135v256q258 49 389 49q78 0 139 -6t129 -25.5t112 -53.5t72.5 -94t28.5 -142v-324l61 -2v-254h-436v72q-98 -96 -244 -97q-133 0 -232 85t-99 216zM432 295 q0 -39 25.5 -67.5t64.5 -28.5q37 0 62.5 27.5t25.5 64.5t-27.5 62.5t-64.5 25.5q-35 0 -60.5 -24.5t-25.5 -59.5z" />
<glyph unicode="b" horiz-adv-x="1150" d="M10 1112v254h469v-573q59 59 112.5 83.5t131.5 24.5q184 0 289.5 -139.5t105.5 -329.5q0 -186 -104.5 -321.5t-284.5 -135.5q-78 0 -133 29t-117 92v-96h-401v1112h-68zM477 444q0 -66 29 -114.5t88 -48.5t87 50t28 115.5t-29 114.5t-88 49q-61 0 -88 -49t-27 -117z" />
<glyph unicode="c" horiz-adv-x="929" d="M35 436q0 201 115.5 333t312.5 132q123 0 229 -70l27 56h147v-381h-202q-10 100 -103 100q-115 0 -115 -180q0 -70 27 -124t88 -54q84 0 103 92h202v-258q-162 -106 -368 -107q-209 0 -336 126t-127 335z" />
<glyph unicode="d" horiz-adv-x="1179" d="M35 442q0 186 102.5 322.5t280.5 136.5q137 0 254 -117v328h-82v254h483v-1112h70v-254h-471v113q-82 -137 -246 -138q-182 0 -286.5 139.5t-104.5 327.5zM446 446q0 -61 29 -114t86 -53q59 0 90 48t31 111q0 70 -28.5 120t-92.5 50q-59 0 -87 -49t-28 -113z" />
<glyph unicode="e" horiz-adv-x="1011" d="M35 446q0 199 138 327t339 128q152 0 271.5 -76.5t164.5 -216.5q27 -85 31 -237h-537q10 -88 41 -138.5t109 -50.5q59 0 87 29t40 90h250v-203q-233 -123 -441 -123q-215 0 -354 128t-139 343zM438 520h189q-6 162 -92 162t-97 -162z" />
<glyph unicode="f" horiz-adv-x="681" d="M45 0v254h68v371h-66v252h66v55q0 215 128 338t345 123q27 0 76 -4v-349q-98 -2 -120 -32.5t-22 -130.5h137v-252h-137v-371h84v-254h-559z" />
<glyph unicode="g" horiz-adv-x="1144" d="M35 420q0 205 106.5 343t302.5 138q150 0 275 -94l16 70h381v-254h-67v-568q0 -203 -152 -317q-168 -129 -403 -129q-150 0 -363 51v303q199 -86 330 -86q76 0 145.5 40t69.5 112q0 12 -4 41q-115 -84 -236 -84q-150 0 -262 94q-139 119 -139 340zM432 421.5 q0 -67.5 30 -116.5t93 -49q61 0 91 46t30 112q0 68 -32 121t-93.5 53t-90 -49.5t-28.5 -117z" />
<glyph unicode="h" horiz-adv-x="1185" d="M37 0v254h69v858h-69v254h471v-618q59 80 120.5 116.5t151.5 36.5q135 0 217 -74.5t82 -210.5v-362h68v-254h-469v500q0 43 -21.5 71.5t-64.5 28.5q-37 0 -60.5 -25.5t-23.5 -64.5v-256h70v-254h-541z" />
<glyph unicode="i" horiz-adv-x="628" d="M45 0v254h68v369h-68v254h471v-623h68v-254h-539zM47 1171q0 90 73 148.5t165 58.5t164.5 -58.5t72.5 -148.5q0 -92 -72.5 -150t-164.5 -58t-165 58t-73 150z" />
<glyph unicode="j" horiz-adv-x="606" d="M6 -121q66 0 85.5 21.5t23.5 89.5q0 10 1 28.5t1 26.5v578h-70v254h471v-842q0 -205 -76 -287q-121 -135 -364 -135q-47 0 -72 2v264zM51 1171q0 90 73 148.5t165 58.5t164.5 -58.5t72.5 -148.5q0 -92 -72.5 -150t-164.5 -58t-165 58t-73 150z" />
<glyph unicode="k" horiz-adv-x="1144" d="M37 0v254h69v858h-69v254h471v-895l186 152h-86v254h477v-254q-111 0 -135 -10.5t-114 -88.5l182 -270h106v-254h-376l-240 373v-373h-471z" />
<glyph unicode="l" horiz-adv-x="606" d="M33 0v254h69v858h-69v254h471v-1112h69v-254h-540z" />
<glyph unicode="m" horiz-adv-x="1697" d="M51 0v254h68v369h-68v254h471v-132q61 84 116.5 120t145.5 36q92 0 151.5 -37t100.5 -119q55 80 115.5 118t153.5 38q86 0 158.5 -37t105.5 -108q22 -43 22 -138v-8v-356h68v-254h-463v498q0 104 -70 104q-72 0 -71 -96v-252h69v-254h-460v471q2 20 0 44t-6.5 42 t-19.5 30.5t-42 12.5q-23 0 -38 -8t-22.5 -16.5t-10.5 -32t-3 -30.5v-38v-221h68v-254h-539z" />
<glyph unicode="n" horiz-adv-x="1196" d="M51 0v254h68v369h-68v254h469v-129q61 82 119.5 117.5t151.5 35.5q137 0 218 -74.5t81 -210.5v-362h69v-254h-471v500q0 100 -82 100q-39 0 -62.5 -25.5t-23.5 -64.5v-256h68v-254h-537z" />
<glyph unicode="o" horiz-adv-x="1087" d="M35 438q0 217 144.5 340t365.5 123t365.5 -123t144.5 -340t-144.5 -340t-365.5 -123t-365.5 123t-144.5 340zM430 438q0 -174 115 -174q112 0 112 174t-112 174q-115 0 -115 -174z" />
<glyph unicode="p" horiz-adv-x="1175" d="M33 -133h69v756h-69v254h473v-103q66 74 114 100.5t136 26.5q184 0 285.5 -137.5t101.5 -327.5q0 -180 -102.5 -320.5t-276.5 -140.5q-84 0 -141.5 32t-116.5 99v-239h90v-250h-563v250zM502 442q0 -159 111 -159h1h1q116 0 116 163q0 162 -110 162q-119 0 -119 -166z " />
<glyph unicode="q" horiz-adv-x="1173" d="M35 444q0 193 107.5 325t295.5 132q78 0 132.5 -22.5t115.5 -75.5l59 74h394v-254h-68v-756h68v-250h-557v250h86v227q-102 -119 -240 -119q-184 0 -288.5 139.5t-104.5 329.5zM449 442q0 -59 28.5 -113.5t83.5 -54.5q61 0 88 51t27 119q0 63 -27.5 112.5t-87 49.5 t-86 -49t-26.5 -115z" />
<glyph unicode="r" horiz-adv-x="811" d="M51 0v254h68v369h-68v254h455v-121q66 88 122 116.5t163 28.5v-352q-41 10 -74 10q-90 0 -150.5 -41t-60.5 -125v-139h119v-254h-574z" />
<glyph unicode="s" horiz-adv-x="835" d="M31 0v309h182q25 -145 156 -145q33 0 58.5 17.5t25.5 47.5q0 39 -43 64.5t-104.5 45t-124 46.5t-105.5 82t-43 135q0 145 98 222t248 77q137 0 244 -63l14 39h133v-261h-160q-4 63 -41 100.5t-100 37.5q-78 0 -78 -60q0 -35 42 -57.5t101.5 -40.5t120 -47t102.5 -93.5 t42 -160.5q0 -154 -93.5 -237t-248.5 -83q-82 0 -136.5 17.5t-117.5 66.5l-35 -59h-137z" />
<glyph unicode="t" horiz-adv-x="669" d="M10 623v254h88v202l394 97v-299h135v-254h-135v-283q0 -86 73 -86q25 0 58 14v-248q-111 -45 -254 -45q-137 0 -204 58.5t-67 193.5v396h-88z" />
<glyph unicode="u" horiz-adv-x="1196" d="M33 623v254h469v-500q0 -45 21.5 -73t64.5 -28q37 0 60.5 27t23.5 64v256h-70v254h537v-254h-68v-369h68v-254h-467v129q-59 -80 -121 -117t-152 -37q-135 0 -217 75t-82 210v363h-67z" />
<glyph unicode="v" horiz-adv-x="1071" d="M-6 623v254h528v-254h-71l141 -334l96 227q20 51 21 70q0 14 -9.5 23t-22.5 11.5t-28.5 3.5t-25.5 -1v254h448v-254q-4 0 -12 1t-12 1q-47 0 -72 -29t-49 -84l-217 -512h-392l-266 623h-57z" />
<glyph unicode="w" horiz-adv-x="1574" d="M-6 623v254h553v-254h-98l98 -304l178 558h215l184 -558l74 211q12 33 12 52q0 23 -17 33t-40 9t-41 -1v254h463v-254q-68 0 -97.5 -31t-54.5 -105l-155 -487h-394l-120 358l-115 -358h-373l-209 623h-63z" />
<glyph unicode="x" horiz-adv-x="962" d="M14 0v254h117l141 164l-149 205h-94v254h381l143 -201l160 201h215v-254h-111l-121 -140l166 -229h86v-254h-373l-161 225l-183 -225h-217z" />
<glyph unicode="y" horiz-adv-x="1153" d="M-6 623v254h571v-254h-65l159 -258l19 36q18 35 34.5 66t31 64.5t14.5 46.5q0 25 -17.5 36t-40 9t-41.5 0v254h488v-254q-39 0 -62.5 -7.5t-38 -21.5t-26.5 -38t-29 -54l-332 -635h226v-250h-619l201 385l-395 621h-78z" />
<glyph unicode="z" horiz-adv-x="962" d="M35 0v240l422 397h-125q-70 0 -93.5 -24.5t-23.5 -92.5h-166v357h852v-240l-405 -383h118q82 0 115 23.5t47 101.5h154v-379h-895z" />
<glyph unicode="{" d="M244 389v225q113 20 112 156v315q0 164 73 230.5t239 66.5q23 0 49 -1t58 -3t50 -2v-233h-41q-43 0 -58 -1t-42 -6.5t-36 -16.5t-17 -34.5t-8 -58.5v-276q0 -100 -24 -152.5t-99 -105.5q74 -47 98.5 -104.5t24.5 -156.5v-251q0 -98 28.5 -120t132.5 -22q27 0 41 2v-235 q-94 -4 -141 -4q-174 0 -251 62.5t-77 232.5v317q0 76 -22.5 120t-89.5 56z" />
<glyph unicode="|" d="M379 -512v2048h266v-2048h-266z" />
<glyph unicode="}" d="M244 -160q14 -2 43 -2q51 0 71.5 2t47 12.5t35 35t8.5 67.5v276q0 100 23.5 152.5t98.5 108.5q-74 47 -98 104t-24 154v276q0 35 -8.5 58.5t-17.5 34.5t-37 16.5t-42 6.5t-59 1h-41v233l159 6q164 0 238 -66.5t74 -230.5v-315q0 -76 22.5 -120t87.5 -56v-225 q-63 -14 -86.5 -50t-23.5 -106v-317q0 -170 -77 -232.5t-251 -62.5q-49 0 -143 4v235z" />
<glyph unicode="~" horiz-adv-x="1366" d="M184 1243q25 53 35 74.5t33.5 64.5t43 61.5t49.5 42t68 33t83 9.5q68 0 198.5 -50.5t190.5 -50.5q53 0 82.5 25t62.5 80l152 -88q-33 -66 -50.5 -98.5t-56.5 -75.5t-86 -68q-66 -33 -133 -33q-57 0 -191.5 51.5t-185.5 51.5q-41 0 -70.5 -20.5t-41 -39t-37.5 -65.5z" />
<glyph unicode="&#xa1;" horiz-adv-x="636" d="M41 -492l174 893h266v-893h-440zM117 688q0 98 64.5 155.5t162.5 57.5t161.5 -58.5t63.5 -154.5q0 -98 -63.5 -155.5t-161.5 -57.5t-162.5 57.5t-64.5 155.5z" />
<glyph unicode="&#xa2;" horiz-adv-x="1161" d="M164 690q0 246 174 377q55 43 151 72v194h216v-182q152 -25 280 -100v-258h-213q-6 94 -100 94q-125 0 -125 -187q0 -197 121 -196q102 0 104 104h223v-41q0 -135 -78.5 -225t-211.5 -117v-178h-216v180q-158 49 -241.5 171t-83.5 292z" />
<glyph unicode="&#xa3;" horiz-adv-x="1193" d="M35 604v217h123q-29 90 -29 156q0 197 133 299t334 102q102 0 172 -21.5t150 -78.5l38 59h185v-442h-223q0 104 -46.5 176t-146.5 72q-70 0 -111 -42t-41 -112q0 -61 50 -168h204v-217h-157q-16 -76 -41 -125t-78 -108q43 6 86 6q39 0 116.5 -19.5t116.5 -19.5 q55 0 75 41t11 98h203q-4 -94 -9 -144t-27.5 -127t-63.5 -126q-80 -94 -215 -94q-76 0 -232.5 45t-242.5 45q-76 0 -133.5 -18.5t-143.5 -61.5v350q55 -25 92 -24q47 0 71 31.5t24 80.5q0 53 -48 170h-196z" />
<glyph unicode="&#xa4;" horiz-adv-x="1366" d="M39 1268l145 145l213 -213q139 90 286.5 90t281.5 -88l211 209l143 -143l-209 -209q94 -150 94 -287q0 -139 -90 -278l211 -211l-141 -146l-211 211q-139 -92 -291 -92q-143 0 -287 90l-211 -209l-143 144l211 211q-90 135 -90 282q0 143 92 281zM406 772 q0 -115 81.5 -196.5t196.5 -81.5t196 81.5t81 196.5q0 117 -80 199t-197 82t-197.5 -82t-80.5 -199z" />
<glyph unicode="&#xa5;" horiz-adv-x="1173" d="M10 518v107h342l-80 137h-262v112h197l-117 191h-80v301h621v-301h-82l149 -244q111 176 111 209q0 37 -64 37q-6 0 -17 -1t-17 -1v301h452v-301q-10 -2 -33 -2q-78 -4 -103.5 -23.5t-70.5 -93.5l-43 -72h250v-112h-301l-78 -137h379v-107h-391v-217h141v-301h-686v301 h140v217h-357z" />
<glyph unicode="&#xa7;" horiz-adv-x="1120" d="M45 608q0 82 28.5 142.5t90.5 126.5q-80 86 -80 180q0 152 129 245t287 93q156 0 325 -80l39 51h158v-369h-197q-57 209 -268 209q-57 0 -100 -24.5t-43 -75.5q0 -27 14 -48.5t35.5 -31.5t46.5 -20.5t47 -16.5q49 -16 144.5 -53t105.5 -41q131 -49 199.5 -128t68.5 -210 q0 -143 -108 -252q90 -78 90 -190q0 -168 -148.5 -281t-320.5 -113q-84 0 -157 26t-173 79l-39 -86h-160v430h199q37 -106 116 -169.5t187 -63.5q66 0 123 31.5t57 90.5q0 33 -26.5 57.5t-59 34t-63.5 21.5l-119 41q-41 14 -88 31.5t-88 34t-83 43t-73 59.5q-96 100 -96 227 zM358 635q0 -25 8.5 -44.5t24 -32.5t33.5 -24.5t38.5 -18.5t41.5 -15q74 -29 217 -90q41 57 41 118q0 35 -16.5 62.5t-41 42t-55.5 28t-61 23.5q-12 4 -77 29.5t-99 38.5q-53 -68 -54 -117z" />
<glyph unicode="&#xa8;" horiz-adv-x="1026" d="M137 1176q0 68 51.5 115.5t118.5 47.5q72 0 123 -48t51 -119.5t-49 -123t-121 -51.5q-74 0 -124 52.5t-50 126.5zM547 1176q0 68 51 115.5t119 47.5q72 0 123 -48t51 -119.5t-49 -123t-121 -51.5q-74 0 -124 52.5t-50 126.5z" />
<glyph unicode="&#xa9;" horiz-adv-x="1529" d="M55 682q0 295 207 503t502 208t503 -208t208 -503t-208 -502t-503 -207q-293 0 -501 208t-208 501zM203 682q0 -238 162.5 -410t398.5 -172q238 0 400.5 172t162.5 410t-163 411t-400 173q-236 0 -398.5 -173t-162.5 -411zM354 678q0 186 100.5 305t282.5 119 q115 0 191 -51l16 34h174v-327h-166q2 10 2 30q0 57 -35.5 93.5t-93.5 36.5q-39 0 -66.5 -15.5t-40.5 -34t-19.5 -57.5t-7.5 -60.5t-1 -66.5t1 -68.5t8.5 -61.5t20.5 -57.5t40.5 -36t68.5 -16.5q66 0 92.5 32t30.5 99h166v-200q-152 -111 -362 -111q-190 0 -296 111.5 t-106 302.5z" />
<glyph unicode="&#xaa;" horiz-adv-x="774" d="M41 991q0 84 74.5 131t165.5 47q88 0 151 -39v25q0 82 -125 82q-80 0 -121 -49h-92v160q188 31 264 30q66 0 114 -6t102.5 -24.5t83 -61.5t28.5 -108v-199l43 -2v-158h-297v45q-70 -61 -166 -61q-88 0 -156.5 52t-68.5 136zM53 608v68h670v-68h-670zM313 999.5 q0 -24.5 17.5 -41t42 -16.5t43 16.5t18.5 41t-18.5 40t-43 15.5t-42 -15.5t-17.5 -40z" />
<glyph unicode="&#xab;" horiz-adv-x="1159" d="M55 451l209 397h352l-213 -397l213 -406h-352zM514 451l211 397h352l-213 -397l213 -406h-352z" />
<glyph unicode="&#xac;" d="M68 307v240h888v-547h-266v307h-622z" />
<glyph unicode="&#xad;" horiz-adv-x="536" d="M0 328v311h537v-311h-537z" />
<glyph unicode="&#xae;" d="M102 1153q0 170 121 290t289 120q170 0 290 -120t120 -290t-121 -290t-289 -120t-289 120t-121 290zM156 1153q0 -147 104.5 -251.5t251.5 -104.5t251.5 104.5t104.5 251.5t-104.5 251.5t-251.5 104.5t-251.5 -104.5t-104.5 -251.5zM305 942v92h39v238h-39v94h264 q139 0 140 -121q0 -76 -70 -106l76 -105h28v-92h-135l-123 203v-111h33v-92h-213zM485 1184h17q61 0 61 45q0 43 -59 43h-19v-88z" />
<glyph unicode="&#xaf;" horiz-adv-x="987" d="M137 1024v227h713v-227h-713z" />
<glyph unicode="&#xb0;" d="M197 1042q0 129 93 219.5t222 90.5t222 -90.5t93 -219.5t-93 -221t-222 -92t-222 92t-93 221zM354 1042q0 -66 46 -110.5t112 -44.5q63 0 110.5 45t47.5 108.5t-46 109.5t-112 46q-63 0 -110.5 -45t-47.5 -109z" />
<glyph unicode="&#xb1;" d="M68 102v246h888v-246h-888zM68 731v246h311v313h266v-313h311v-246h-311v-315h-266v315h-311z" />
<glyph unicode="&#xb4;" horiz-adv-x="786" d="M137 993l123 371h391l-231 -371h-283z" />
<glyph unicode="&#xb5;" d="M55 -354v1337h264v-520q0 -274 201 -275q190 0 191 283v512h262v-983h-262v115q-72 -135 -197 -135q-123 0 -195 124v-458h-264z" />
<glyph unicode="&#xb6;" horiz-adv-x="1366" d="M55 1006q0 360 473 360h689v-205h-152v-1349h-225v1349h-170v-1349h-226v845h-24q-160 0 -262.5 95.5t-102.5 253.5z" />
<glyph unicode="&#xb7;" horiz-adv-x="724" d="M68 733q0 127 82.5 203t212 76t211 -76t81.5 -203t-83 -201.5t-209.5 -74.5t-210.5 74.5t-84 201.5z" />
<glyph unicode="&#xb8;" horiz-adv-x="645" d="M137 -379l82 305h289l-119 -305h-252z" />
<glyph unicode="&#xba;" horiz-adv-x="774" d="M41 1091.5q0 139.5 100.5 213t245.5 73.5q143 0 244.5 -74.5t101.5 -212t-101.5 -213t-244.5 -75.5q-145 0 -245.5 74.5t-100.5 214zM53 608v68h668v-68h-668zM309 1094q0 -111 78 -110.5t78 106.5q0 111 -78 110.5t-78 -106.5z" />
<glyph unicode="&#xbb;" horiz-adv-x="1159" d="M82 45l213 406l-213 397h352l211 -397l-211 -406h-352zM543 45l213 406l-213 397h352l209 -397l-209 -406h-352z" />
<glyph unicode="&#xbf;" horiz-adv-x="909" d="M27 -82q0 225 150.5 356.5t379.5 131.5q63 0 121 -15v-280q-31 16 -72 16q-84 0 -128 -55.5t-44 -141.5q0 -74 33 -126t102 -52q104 0 109 115h176v-283q-186 -102 -365 -102q-207 0 -334.5 115.5t-127.5 320.5zM283 688q0 98 64.5 155.5t162.5 57.5t161.5 -58.5 t63.5 -154.5q0 -98 -63.5 -155.5t-161.5 -57.5t-162.5 57.5t-64.5 155.5z" />
<glyph unicode="&#xc0;" horiz-adv-x="1382" d="M-6 0v301q33 -4 49 -4q23 0 42 8t31.5 22.5t23 34t16.5 40l12 41t10 38.5l225 885h570l282 -1065h134v-301h-721v301h110l-37 148h-274q-10 -51 -10 -66q0 -39 21.5 -62.5t60.5 -23.5q10 0 34 4v-301h-579zM319 1860h416l135 -400h-303zM520 715h152l-80 327z" />
<glyph unicode="&#xc1;" horiz-adv-x="1382" d="M-6 0v301q33 -4 49 -4q23 0 42 8t31.5 22.5t23 34t16.5 40l12 41t10 38.5l225 885h570l282 -1065h134v-301h-721v301h110l-37 148h-274q-10 -51 -10 -66q0 -39 21.5 -62.5t60.5 -23.5q10 0 34 4v-301h-579zM483 1460l135 400h416l-248 -400h-303zM520 715h152l-80 327z " />
<glyph unicode="&#xc2;" horiz-adv-x="1382" d="M-6 0v301q33 -4 49 -4q23 0 42 8t31.5 22.5t23 34t16.5 40l12 41t10 38.5l225 885h570l282 -1065h134v-301h-721v301h110l-37 148h-274q-10 -51 -10 -66q0 -39 21.5 -62.5t60.5 -23.5q10 0 34 4v-301h-579zM238 1460l264 404h393l250 -404h-395l-111 191l-109 -191h-292z M520 715h152l-80 327z" />
<glyph unicode="&#xc3;" horiz-adv-x="1382" d="M-6 0v301q33 -4 49 -4q23 0 42 8t31.5 22.5t23 34t16.5 40l12 41t10 38.5l225 885h570l282 -1065h134v-301h-721v301h110l-37 148h-274q-10 -51 -10 -66q0 -39 21.5 -62.5t60.5 -23.5q10 0 34 4v-301h-579zM213 1473q4 33 7 65.5t10.5 64t15.5 61.5t21.5 57.5t31.5 51 t46 43t63 31.5q61 20 112 21q74 0 141.5 -37t118.5 -73t88 -36q55 0 75 33t26 94h200q0 -203 -79 -299q-74 -90 -203 -90q-72 0 -144.5 35t-131 69.5t-93.5 34.5q-53 0 -72.5 -33.5t-23.5 -92.5h-209zM520 715h152l-80 327z" />
<glyph unicode="&#xc4;" horiz-adv-x="1382" d="M-6 0v301q33 -4 49 -4q23 0 42 8t31.5 22.5t23 34t16.5 40l12 41t10 38.5l225 885h570l282 -1065h134v-301h-721v301h110l-37 148h-274q-10 -51 -10 -66q0 -39 21.5 -62.5t60.5 -23.5q10 0 34 4v-301h-579zM270 1632q0 74 55.5 126t129.5 52q76 0 131 -52t55 -128 t-53 -133t-129 -57q-80 0 -134.5 56t-54.5 136zM520 715h152l-80 327zM741 1632q0 74 55.5 126t129.5 52q76 0 131 -52t55 -128t-53 -133t-129 -57q-80 0 -134.5 56t-54.5 136z" />
<glyph unicode="&#xc5;" horiz-adv-x="1382" d="M-6 0v301q33 -4 49 -4q23 0 42 8t31.5 22.5t23 34t16.5 40l12 41t10 38.5l225 885h570l282 -1065h134v-301h-721v301h110l-37 148h-274q-10 -51 -10 -66q0 -39 21.5 -62.5t60.5 -23.5q10 0 34 4v-301h-579zM412 1663q0 109 83 169t195.5 60t195.5 -60t83 -169t-83 -169 t-195.5 -60t-195.5 60t-83 169zM520 715h152l-80 327zM596 1665q0 -61 90 -61t90 59q0 61 -90 61t-90 -59z" />
<glyph unicode="&#xc6;" horiz-adv-x="1830" d="M-6 0v301q100 0 132 23.5t83 124.5l311 616h-229v301h1458v-541h-213l-72 240h-178v-221h178v-301h-178v-242h191l55 295h233v-596h-1075v301h129v162h-315q-2 -6 -16.5 -31.5t-22.5 -46t-8 -33.5q0 -66 96 -51v-301h-559zM639 733h180v352z" />
<glyph unicode="&#xc7;" horiz-adv-x="1269" d="M51 674q0 190 57.5 348t192.5 264.5t330 106.5q92 0 156.5 -18.5t132.5 -69.5l24 61h262v-557h-248q2 16 3 51q0 94 -52.5 156.5t-144.5 62.5q-80 0 -128 -45t-60.5 -109.5t-17.5 -138t1 -133.5q0 -74 2 -113.5t18.5 -103t51.5 -98.5q57 -59 141 -59q102 0 141 55t45 166 h248v-340q-100 -82 -227 -129q-166 -57 -320 -58q-203 0 -343 96.5t-202.5 250t-62.5 354.5zM401 -408l70 312h385l-137 -312h-318z" />
<glyph unicode="&#xc8;" horiz-adv-x="1202" d="M59 0v301h131v764h-131v301h1061v-539h-215l-71 238h-181v-221h181v-297h-181v-246h193l59 295h232v-596h-1078zM217 1860h416l135 -400h-303z" />
<glyph unicode="&#xc9;" horiz-adv-x="1202" d="M59 0v301h131v764h-131v301h1061v-539h-215l-71 238h-181v-221h181v-297h-181v-246h193l59 295h232v-596h-1078zM395 1460l133 400h416l-246 -400h-303z" />
<glyph unicode="&#xca;" horiz-adv-x="1202" d="M59 0v301h131v764h-131v301h1061v-539h-215l-71 238h-181v-221h181v-297h-181v-246h193l59 295h232v-596h-1078zM147 1460l265 404h393l250 -404h-396l-110 191l-107 -191h-295z" />
<glyph unicode="&#xcb;" horiz-adv-x="1202" d="M59 0v301h131v764h-131v301h1061v-539h-215l-71 238h-181v-221h181v-297h-181v-246h193l59 295h232v-596h-1078zM180 1632q0 74 55.5 126t129.5 52q76 0 131 -52t55 -128t-53.5 -133t-128.5 -57q-80 0 -134.5 56t-54.5 136zM651 1632q0 74 55.5 126t129.5 52 q76 0 131 -52t55 -128t-53.5 -133t-128.5 -57q-80 0 -134.5 56t-54.5 136z" />
<glyph unicode="&#xcc;" horiz-adv-x="870" d="M74 0v301h129v764h-129v301h723v-301h-129v-764h129v-301h-723zM92 1860h416l135 -400h-303z" />
<glyph unicode="&#xcd;" horiz-adv-x="870" d="M74 0v301h129v764h-129v301h723v-301h-129v-764h129v-301h-723zM229 1460l133 400h416l-246 -400h-303z" />
<glyph unicode="&#xce;" horiz-adv-x="870" d="M27 1460l237 404h357l223 -404h-355l-100 191l-98 -191h-264zM74 0v301h129v764h-129v301h723v-301h-129v-764h129v-301h-723z" />
<glyph unicode="&#xcf;" horiz-adv-x="870" d="M14 1632q0 74 55.5 126t129.5 52q76 0 131 -52t55 -128t-53 -133t-129 -57q-80 0 -134.5 56t-54.5 136zM74 0v301h129v764h-129v301h723v-301h-129v-764h129v-301h-723zM485 1632q0 74 55.5 126t129.5 52q76 0 131 -52t55 -128t-53 -133t-129 -57q-80 0 -134.5 56 t-54.5 136z" />
<glyph unicode="&#xd1;" horiz-adv-x="1540" d="M59 0v301q4 0 11.5 -1t11.5 -1q74 0 97.5 36t23.5 116v614h-131v311h598l438 -856v391q0 98 -22.5 126t-114.5 28v301h526l-2 -301q-4 0 -12 1t-13 1q-37 0 -59 -18.5t-30.5 -55.5t-10.5 -60.5t-2 -66.5v-866h-500l-403 774v-301q0 -43 4 -72.5t17.5 -58.5t42 -39 t73.5 -2v-301h-543zM293 1473q4 33 7 65.5t10 64t14.5 62.5t21.5 58.5t32.5 50t45.5 42t61 31.5q61 20 115 21q74 0 140.5 -37t117.5 -73t90 -36q37 0 59.5 19.5t29.5 43t12 64.5h200q0 -203 -80 -299q-74 -90 -204 -90q-72 0 -144.5 35t-131 69.5t-93.5 34.5 q-86 0 -94 -126h-209z" />
<glyph unicode="&#xd2;" horiz-adv-x="1495" d="M51.5 684q-0.5 311 192 510t504 199t504 -199t192.5 -510q0 -309 -193 -514q-186 -197 -503 -197q-319 0 -506 197q-190 203 -190.5 514zM336 1860h416l135 -400h-303zM561 588q-2 -51 7.5 -105.5t25.5 -98.5t56 -72.5t98 -28.5q41 0 72.5 15t51 41t33 58.5t18.5 70.5 t9 76t2 73.5t0 64.5q-2 29 0 64.5t-2 74.5t-9 76t-18.5 70.5t-33 59.5t-51.5 41t-72 15q-57 0 -97.5 -28.5t-56.5 -72.5t-25.5 -99.5t-7.5 -106.5t0 -94q2 -43 0 -94z" />
<glyph unicode="&#xd3;" horiz-adv-x="1495" d="M51.5 684q-0.5 311 192 510t504 199t504 -199t192.5 -510q0 -309 -193 -514q-186 -197 -503 -197q-319 0 -506 197q-190 203 -190.5 514zM541 1460l135 400h416l-248 -400h-303zM561 588q-2 -51 7.5 -105.5t25.5 -98.5t56 -72.5t98 -28.5q41 0 72.5 15t51 41t33 58.5 t18.5 70.5t9 76t2 73.5t0 64.5q-2 29 0 64.5t-2 74.5t-9 76t-18.5 70.5t-33 59.5t-51.5 41t-72 15q-57 0 -97.5 -28.5t-56.5 -72.5t-25.5 -99.5t-7.5 -106.5t0 -94q2 -43 0 -94z" />
<glyph unicode="&#xd4;" horiz-adv-x="1495" d="M51.5 684q-0.5 311 192 510t504 199t504 -199t192.5 -510q0 -309 -193 -514q-186 -197 -503 -197q-319 0 -506 197q-190 203 -190.5 514zM293 1460l264 404h395l248 -404h-393l-111 191l-108 -191h-295zM561 588q-2 -51 7.5 -105.5t25.5 -98.5t56 -72.5t98 -28.5 q41 0 72.5 15t51 41t33 58.5t18.5 70.5t9 76t2 73.5t0 64.5q-2 29 0 64.5t-2 74.5t-9 76t-18.5 70.5t-33 59.5t-51.5 41t-72 15q-57 0 -97.5 -28.5t-56.5 -72.5t-25.5 -99.5t-7.5 -106.5t0 -94q2 -43 0 -94z" />
<glyph unicode="&#xd5;" horiz-adv-x="1495" d="M51.5 684q-0.5 311 192 510t504 199t504 -199t192.5 -510q0 -309 -193 -514q-186 -197 -503 -197q-319 0 -506 197q-190 203 -190.5 514zM268 1473q4 33 7.5 65.5t10.5 64t15 62.5t21.5 58.5t32 50t46 42t62.5 31.5q61 20 115 21q74 0 139 -37t117.5 -73t91.5 -36 q53 0 72.5 33t25.5 94h201q0 -207 -78 -299q-74 -90 -205 -90q-72 0 -144.5 35t-131 69.5t-93.5 34.5q-88 0 -96 -126h-209zM561 588q-2 -51 7.5 -105.5t25.5 -98.5t56 -72.5t98 -28.5q41 0 72.5 15t51 41t33 58.5t18.5 70.5t9 76t2 73.5t0 64.5q-2 29 0 64.5t-2 74.5t-9 76 t-18.5 70.5t-33 59.5t-51.5 41t-72 15q-57 0 -97.5 -28.5t-56.5 -72.5t-25.5 -99.5t-7.5 -106.5t0 -94q2 -43 0 -94z" />
<glyph unicode="&#xd6;" horiz-adv-x="1495" d="M51.5 684q-0.5 311 192 510t504 199t504 -199t192.5 -510q0 -309 -193 -514q-186 -197 -503 -197q-319 0 -506 197q-190 203 -190.5 514zM326 1632q0 74 55 126t129 52q76 0 131 -52t55 -128q0 -78 -52 -134t-128 -56q-80 0 -135 56t-55 136zM561 588q-2 -51 7.5 -105.5 t25.5 -98.5t56 -72.5t98 -28.5q41 0 72.5 15t51 41t33 58.5t18.5 70.5t9 76t2 73.5t0 64.5q-2 29 0 64.5t-2 74.5t-9 76t-18.5 70.5t-33 59.5t-51.5 41t-72 15q-57 0 -97.5 -28.5t-56.5 -72.5t-25.5 -99.5t-7.5 -106.5t0 -94q2 -43 0 -94zM797 1632q0 74 55 126t129 52 q76 0 131 -52t55 -128q0 -78 -52 -134t-128 -56q-80 0 -135 56t-55 136z" />
<glyph unicode="&#xd8;" horiz-adv-x="1499" d="M-16 61l188 193q-70 125 -95.5 211t-25.5 215q0 311 190.5 512t499.5 201q272 0 441 -136l184 187l147 -150l-190 -186q125 -201 125 -422q0 -317 -192.5 -515t-510.5 -198q-137 0 -229 28t-201 103l-192 -190zM563 604q2 -43 4 -87t14.5 -86t31 -74.5t54 -53t83.5 -20.5 q41 0 72.5 15t51 41t33 58.5t18.5 70.5t9 76t2 73.5t0 64.5q-2 29 0 64.5t-2 74.5t-9 76t-18.5 70.5t-33 59.5t-51 41t-72.5 15q-57 0 -97.5 -28.5t-56.5 -72.5t-25.5 -99.5t-7.5 -106.5t0 -94q-2 -35 0 -78z" />
<glyph unicode="&#xd9;" horiz-adv-x="1384" d="M39 1065v301h725v-301h-131v-465q0 -57 1 -86t10 -81t25.5 -79.5t51.5 -50t86 -22.5q168 0 168 233v551h-131v301h520v-301h-129v-535q0 -152 -26.5 -239.5t-121.5 -175.5q-156 -141 -387 -142q-266 0 -398 139.5t-132 407.5v545h-131zM362 1860h416l135 -400h-303z" />
<glyph unicode="&#xda;" horiz-adv-x="1384" d="M39 1065v301h725v-301h-131v-465q0 -57 1 -86t10 -81t25.5 -79.5t51.5 -50t86 -22.5q168 0 168 233v551h-131v301h520v-301h-129v-535q0 -152 -26.5 -239.5t-121.5 -175.5q-156 -141 -387 -142q-266 0 -398 139.5t-132 407.5v545h-131zM553 1460l135 400h416l-248 -400 h-303z" />
<glyph unicode="&#xdb;" horiz-adv-x="1384" d="M39 1065v301h725v-301h-131v-465q0 -57 1 -86t10 -81t25.5 -79.5t51.5 -50t86 -22.5q168 0 168 233v551h-131v301h520v-301h-129v-535q0 -152 -26.5 -239.5t-121.5 -175.5q-156 -141 -387 -142q-266 0 -398 139.5t-132 407.5v545h-131zM279 1460l264 404h395l248 -404 h-393l-111 191l-109 -191h-294z" />
<glyph unicode="&#xdc;" horiz-adv-x="1384" d="M39 1065v301h725v-301h-131v-465q0 -57 1 -86t10 -81t25.5 -79.5t51.5 -50t86 -22.5q168 0 168 233v551h-131v301h520v-301h-129v-535q0 -152 -26.5 -239.5t-121.5 -175.5q-156 -141 -387 -142q-266 0 -398 139.5t-132 407.5v545h-131zM311 1632q0 74 55.5 126t129.5 52 q76 0 131 -52t55 -128q0 -78 -52 -134t-128 -56q-80 0 -135.5 56t-55.5 136zM782 1632q0 74 55.5 126t129.5 52q76 0 131 -52t55 -128q0 -78 -52 -134t-128 -56q-80 0 -135.5 56t-55.5 136z" />
<glyph unicode="&#xdf;" horiz-adv-x="1282" d="M41 0v254h68v623q0 285 149 401q150 115 408 115q88 0 167.5 -16.5t153.5 -52.5t118 -103.5t44 -161.5q0 -174 -182 -250q121 -41 180 -98q104 -105 104 -279q0 -133 -58 -241.5t-175 -157.5q-74 -33 -213 -33h-227v256q41 -4 59 -4q92 0 144.5 55t52.5 148 q0 98 -60.5 159.5t-155.5 47.5v253q20 -4 31 -4q43 0 69.5 37t26.5 82q0 49 -29.5 86t-78.5 37q-43 0 -70.5 -20.5t-38 -60.5t-13.5 -68.5t-3 -75.5v-928h-471z" />
<glyph unicode="&#xe0;" horiz-adv-x="1081" d="M31 276q0 135 107.5 212t246.5 77q131 0 221 -63q0 6 1 19.5t1 19.5q0 133 -184 133q-119 0 -178 -78h-135v256q258 49 389 49q78 0 139 -6t129 -25.5t112 -53.5t72.5 -94t28.5 -142v-324l61 -2v-254h-436v72q-98 -96 -244 -97q-133 0 -232 85t-99 216zM147 1364h390 l125 -371h-285zM432 295q0 -39 25.5 -67.5t64.5 -28.5q37 0 62.5 27.5t25.5 64.5t-27.5 62.5t-64.5 25.5q-35 0 -60.5 -24.5t-25.5 -59.5z" />
<glyph unicode="&#xe1;" horiz-adv-x="1081" d="M31 276q0 135 107.5 212t246.5 77q131 0 221 -63q0 6 1 19.5t1 19.5q0 133 -184 133q-119 0 -178 -78h-135v256q258 49 389 49q78 0 139 -6t129 -25.5t112 -53.5t72.5 -94t28.5 -142v-324l61 -2v-254h-436v72q-98 -96 -244 -97q-133 0 -232 85t-99 216zM352 993l123 371 h391l-231 -371h-283zM432 295q0 -39 25.5 -67.5t64.5 -28.5q37 0 62.5 27.5t25.5 64.5t-27.5 62.5t-64.5 25.5q-35 0 -60.5 -24.5t-25.5 -59.5z" />
<glyph unicode="&#xe2;" horiz-adv-x="1081" d="M31 276q0 135 107.5 212t246.5 77q131 0 221 -63q0 6 1 19.5t1 19.5q0 133 -184 133q-119 0 -178 -78h-135v256q258 49 389 49q78 0 139 -6t129 -25.5t112 -53.5t72.5 -94t28.5 -142v-324l61 -2v-254h-436v72q-98 -96 -244 -97q-133 0 -232 85t-99 216zM158 997l229 369 h326l209 -369h-344l-84 152l-91 -152h-245zM432 295q0 -39 25.5 -67.5t64.5 -28.5q37 0 62.5 27.5t25.5 64.5t-27.5 62.5t-64.5 25.5q-35 0 -60.5 -24.5t-25.5 -59.5z" />
<glyph unicode="&#xe3;" horiz-adv-x="1081" d="M31 276q0 135 107.5 212t246.5 77q131 0 221 -63q0 6 1 19.5t1 19.5q0 133 -184 133q-119 0 -178 -78h-135v256q258 49 389 49q78 0 139 -6t129 -25.5t112 -53.5t72.5 -94t28.5 -142v-324l61 -2v-254h-436v72q-98 -96 -244 -97q-133 0 -232 85t-99 216zM139 1022v25 q0 137 55.5 230t184.5 93q66 0 121 -33.5t96 -66.5t72 -33q74 0 73 109h199q-2 -68 -4 -102t-18.5 -87t-49.5 -88q-66 -70 -166 -70q-78 0 -177 65.5t-128 65.5q-39 0 -54 -34.5t-9 -73.5h-195zM432 295q0 -39 25.5 -67.5t64.5 -28.5q37 0 62.5 27.5t25.5 64.5t-27.5 62.5 t-64.5 25.5q-35 0 -60.5 -24.5t-25.5 -59.5z" />
<glyph unicode="&#xe4;" horiz-adv-x="1081" d="M31 276q0 135 107.5 212t246.5 77q131 0 221 -63q0 6 1 19.5t1 19.5q0 133 -184 133q-119 0 -178 -78h-135v256q258 49 389 49q78 0 139 -6t129 -25.5t112 -53.5t72.5 -94t28.5 -142v-324l61 -2v-254h-436v72q-98 -96 -244 -97q-133 0 -232 85t-99 216zM164 1176 q0 68 51 115.5t119 47.5q72 0 123 -48t51 -120q0 -70 -49 -122t-119 -52q-74 0 -125 52.5t-51 126.5zM432 295q0 -39 25.5 -67.5t64.5 -28.5q37 0 62.5 27.5t25.5 64.5t-27.5 62.5t-64.5 25.5q-35 0 -60.5 -24.5t-25.5 -59.5zM573 1176q0 68 51.5 115.5t118.5 47.5 q72 0 123.5 -48t51.5 -120q0 -70 -49.5 -122t-118.5 -52q-74 0 -125.5 52.5t-51.5 126.5z" />
<glyph unicode="&#xe5;" horiz-adv-x="1081" d="M31 276q0 135 107.5 212t246.5 77q131 0 221 -63q0 6 1 19.5t1 19.5q0 133 -184 133q-119 0 -178 -78h-135v256q258 49 389 49q78 0 139 -6t129 -25.5t112 -53.5t72.5 -94t28.5 -142v-324l61 -2v-254h-436v72q-98 -96 -244 -97q-133 0 -232 85t-99 216zM276 1180 q0 102 79 159.5t185.5 57.5t185.5 -57.5t79 -160t-79 -160.5t-185 -58q-109 0 -187 57t-78 162zM432 295q0 -39 25.5 -67.5t64.5 -28.5q37 0 62.5 27.5t25.5 64.5t-27.5 62.5t-64.5 25.5q-35 0 -60.5 -24.5t-25.5 -59.5zM436 1182q0 -70 99 -70q39 0 69.5 16.5t30.5 51.5 q0 70 -100 69q-98 0 -99 -67z" />
<glyph unicode="&#xe6;" horiz-adv-x="1546" d="M31 276q0 135 107.5 212t246.5 77q131 0 221 -63q0 6 1 19.5t1 19.5q0 133 -184 133q-119 0 -178 -78h-135v256q258 49 387 49q193 0 329 -53q106 53 220 53q217 0 339.5 -131t122.5 -348v-51h-532q8 -51 14 -74t20.5 -54.5t42 -45t70.5 -13.5q113 0 127 115h250v-190 q-197 -133 -401 -134q-68 0 -158 15q-8 0 -34.5 5t-39.5 5h-262v72q-98 -96 -244 -97q-133 0 -232 85t-99 216zM432 295q0 -39 25.5 -67.5t64.5 -28.5q37 0 62.5 27.5t25.5 64.5t-27.5 62.5t-64.5 25.5q-35 0 -60.5 -24.5t-25.5 -59.5zM979 520h186q-6 162 -92 162 q-29 0 -49 -14.5t-28.5 -44t-11.5 -49t-5 -54.5z" />
<glyph unicode="&#xe7;" horiz-adv-x="929" d="M35 436q0 201 115.5 333t312.5 132q123 0 229 -70l27 56h147v-381h-202q-10 100 -103 100q-115 0 -115 -180q0 -70 27 -124t88 -54q84 0 103 92h202v-258q-162 -106 -368 -107q-209 0 -336 126t-127 335zM264 -379l82 305h289l-119 -305h-252z" />
<glyph unicode="&#xe8;" horiz-adv-x="1011" d="M35 446q0 199 138 327t339 128q152 0 271.5 -76.5t164.5 -216.5q27 -85 31 -237h-537q10 -88 41 -138.5t109 -50.5q59 0 87 29t40 90h250v-203q-233 -123 -441 -123q-215 0 -354 128t-139 343zM154 1364h391l123 -371h-283zM438 520h189q-6 162 -92 162t-97 -162z" />
<glyph unicode="&#xe9;" horiz-adv-x="1011" d="M35 446q0 199 138 327t339 128q152 0 271.5 -76.5t164.5 -216.5q27 -85 31 -237h-537q10 -88 41 -138.5t109 -50.5q59 0 87 29t40 90h250v-203q-233 -123 -441 -123q-215 0 -354 128t-139 343zM344 993l125 371h389l-229 -371h-285zM438 520h189q-6 162 -92 162t-97 -162 z" />
<glyph unicode="&#xea;" horiz-adv-x="1011" d="M35 446q0 199 138 327t339 128q152 0 271.5 -76.5t164.5 -216.5q27 -85 31 -237h-537q10 -88 41 -138.5t109 -50.5q59 0 87 29t40 90h250v-203q-233 -123 -441 -123q-215 0 -354 128t-139 343zM137 997l230 369h325l209 -369h-344l-84 152l-90 -152h-246zM438 520h189 q-6 162 -92 162t-97 -162z" />
<glyph unicode="&#xeb;" horiz-adv-x="1011" d="M35 446q0 199 138 327t339 128q152 0 271.5 -76.5t164.5 -216.5q27 -85 31 -237h-537q10 -88 41 -138.5t109 -50.5q59 0 87 29t40 90h250v-203q-233 -123 -441 -123q-215 0 -354 128t-139 343zM143 1176q0 68 51.5 115.5t118.5 47.5q72 0 123 -48t51 -120q0 -70 -49 -122 t-119 -52q-74 0 -125 52.5t-51 126.5zM438 520h189q-6 162 -92 162t-97 -162zM553 1176q0 68 51 115.5t119 47.5q72 0 123 -48t51 -120q0 -70 -49 -122t-119 -52q-74 0 -125 52.5t-51 126.5z" />
<glyph unicode="&#xec;" horiz-adv-x="628" d="M2 1364h391l123 -371h-283zM45 0v254h68v369h-68v254h471v-623h68v-254h-539z" />
<glyph unicode="&#xed;" horiz-adv-x="628" d="M45 0v254h68v369h-68v254h471v-623h68v-254h-539zM111 993l125 371h391l-232 -371h-284z" />
<glyph unicode="&#xee;" horiz-adv-x="628" d="M4 997l186 369h263l170 -369h-279l-68 152l-73 -152h-199zM45 0v254h68v369h-68v254h471v-623h68v-254h-539z" />
<glyph unicode="&#xef;" horiz-adv-x="628" d="M2 1174q0 55 41 95t96 40q57 0 99.5 -40t42.5 -97.5t-40 -100.5t-98 -43q-59 0 -100 43t-41 103zM45 0v254h68v369h-68v254h471v-623h68v-254h-539zM334 1174q0 55 42 95t97 40q57 0 98 -40t41 -97.5t-40 -100.5t-95 -43q-59 0 -101 43t-42 103z" />
<glyph unicode="&#xf1;" horiz-adv-x="1196" d="M51 0v254h68v369h-68v254h469v-129q61 82 119.5 117.5t151.5 35.5q137 0 218 -74.5t81 -210.5v-362h69v-254h-471v500q0 100 -82 100q-39 0 -62.5 -25.5t-23.5 -64.5v-256h68v-254h-537zM195 1090q0 123 62 201.5t179 78.5q63 0 119.5 -33.5t98.5 -66.5t71 -33 q76 0 76 109h196q-2 -68 -4 -102t-18.5 -87t-48.5 -88q-66 -70 -166 -70q-78 0 -177.5 65.5t-127.5 65.5q-63 0 -64 -108h-192q-4 45 -4 68z" />
<glyph unicode="&#xf2;" horiz-adv-x="1087" d="M35 438q0 217 144.5 340t365.5 123t365.5 -123t144.5 -340t-144.5 -340t-365.5 -123t-365.5 123t-144.5 340zM190 1364h392l125 -371h-285zM430 438q0 -174 115 -174q112 0 112 174t-112 174q-115 0 -115 -174z" />
<glyph unicode="&#xf3;" horiz-adv-x="1087" d="M35 438q0 217 144.5 340t365.5 123t365.5 -123t144.5 -340t-144.5 -340t-365.5 -123t-365.5 123t-144.5 340zM383 993l123 371h391l-231 -371h-283zM430 438q0 -174 115 -174q112 0 112 174t-112 174q-115 0 -115 -174z" />
<glyph unicode="&#xf4;" horiz-adv-x="1087" d="M35 438q0 217 144.5 340t365.5 123t365.5 -123t144.5 -340t-144.5 -340t-365.5 -123t-365.5 123t-144.5 340zM162 997l229 369h324l211 -369h-344l-84 152l-90 -152h-246zM430 438q0 -174 115 -174q112 0 112 174t-112 174q-115 0 -115 -174z" />
<glyph unicode="&#xf5;" horiz-adv-x="1087" d="M35 438q0 217 144.5 340t365.5 123t365.5 -123t144.5 -340t-144.5 -340t-365.5 -123t-365.5 123t-144.5 340zM143 1022v25q0 137 55.5 230t184.5 93q63 0 118.5 -33.5t97.5 -66.5t73 -33q74 0 73 109h199q0 -35 -3 -74t-8 -74t-20.5 -69.5t-40.5 -59.5q-66 -70 -165 -70 q-78 0 -177.5 65.5t-128.5 65.5q-39 0 -54 -34.5t-9 -73.5h-195zM430 438q0 -174 115 -174q112 0 112 174t-112 174q-115 0 -115 -174z" />
<glyph unicode="&#xf6;" horiz-adv-x="1087" d="M35 438q0 217 144.5 340t365.5 123t365.5 -123t144.5 -340t-144.5 -340t-365.5 -123t-365.5 123t-144.5 340zM168 1176q0 68 51 115.5t119 47.5q72 0 123 -48t51 -119.5t-49 -123t-121 -51.5q-74 0 -124 52.5t-50 126.5zM430 438q0 -174 115 -174q112 0 112 174t-112 174 q-115 0 -115 -174zM578 1176q0 68 51 115.5t119 47.5q72 0 123 -48t51 -119.5t-49.5 -123t-120.5 -51.5q-74 0 -124 52.5t-50 126.5z" />
<glyph unicode="&#xf7;" d="M68 573v246h888v-246h-888zM358 348.5q0 63.5 45.5 107.5t108.5 44t107.5 -44t44.5 -107.5t-44.5 -107.5t-107.5 -44t-108.5 44t-45.5 107.5zM358 1044.5q0 63.5 45.5 107.5t108.5 44t107.5 -44t44.5 -107.5t-44.5 -107.5t-107.5 -44t-108.5 44t-45.5 107.5z" />
<glyph unicode="&#xf8;" horiz-adv-x="1095" d="M20 16l125 125q-104 129 -104 297q0 217 146.5 340t367.5 123q88 0 142.5 -13.5t138.5 -51.5l131 129l106 -107l-119 -119q106 -143 107 -305q0 -215 -141.5 -337t-360.5 -122q-100 0 -155.5 12.5t-141.5 53.5l-131 -133zM438 438q0 -174 115 -174q113 0 113 174 t-113 174q-115 0 -115 -174z" />
<glyph unicode="&#xf9;" horiz-adv-x="1196" d="M33 623v254h469v-500q0 -45 21.5 -73t64.5 -28q37 0 60.5 27t23.5 64v256h-70v254h537v-254h-68v-369h68v-254h-467v129q-59 -80 -121 -117t-152 -37q-135 0 -217 75t-82 210v363h-67zM205 1364h391l123 -371h-285z" />
<glyph unicode="&#xfa;" horiz-adv-x="1196" d="M33 623v254h469v-500q0 -45 21.5 -73t64.5 -28q37 0 60.5 27t23.5 64v256h-70v254h537v-254h-68v-369h68v-254h-467v129q-59 -80 -121 -117t-152 -37q-135 0 -217 75t-82 210v363h-67zM381 993l125 371h391l-231 -371h-285z" />
<glyph unicode="&#xfb;" horiz-adv-x="1196" d="M33 623v254h469v-500q0 -45 21.5 -73t64.5 -28q37 0 60.5 27t23.5 64v256h-70v254h537v-254h-68v-369h68v-254h-467v129q-59 -80 -121 -117t-152 -37q-135 0 -217 75t-82 210v363h-67zM217 997l227 369h326l209 -369h-344l-82 152l-92 -152h-244z" />
<glyph unicode="&#xfc;" horiz-adv-x="1196" d="M33 623v254h469v-500q0 -45 21.5 -73t64.5 -28q37 0 60.5 27t23.5 64v256h-70v254h537v-254h-68v-369h68v-254h-467v129q-59 -80 -121 -117t-152 -37q-135 0 -217 75t-82 210v363h-67zM195 1176q0 68 51 115.5t119 47.5q72 0 123 -48t51 -119.5t-49.5 -123t-120.5 -51.5 q-74 0 -124 52.5t-50 126.5zM604 1176q0 68 51.5 115.5t118.5 47.5q72 0 123 -48t51 -119.5t-49 -123t-121 -51.5q-74 0 -124 52.5t-50 126.5z" />
<glyph unicode="&#xff;" horiz-adv-x="1153" d="M-6 623v254h571v-254h-65l159 -258l19 36q18 35 34.5 66t31 64.5t14.5 46.5q0 25 -17.5 36t-40 9t-41.5 0v254h488v-254q-39 0 -62.5 -7.5t-38 -21.5t-26.5 -38t-29 -54l-332 -635h226v-250h-619l201 385l-395 621h-78zM227 1176q0 68 51.5 115.5t118.5 47.5 q72 0 123 -48t51 -120q0 -70 -49 -122t-119 -52q-74 0 -125 52.5t-51 126.5zM637 1176q0 68 51 115.5t119 47.5q72 0 123 -48t51 -120q0 -70 -49 -122t-119 -52q-74 0 -125 52.5t-51 126.5z" />
<glyph unicode="&#x152;" horiz-adv-x="1937" d="M55 680q0 291 179.5 502t463.5 211q35 0 102.5 -6.5t82.5 -8.5q139 -12 211 -12h761v-541h-221l-71 240h-174v-221h174v-299h-174v-244h186l63 297h234v-598h-709q-115 0 -227 -12q-158 -14 -201 -15q-303 0 -491.5 201t-188.5 506zM565 628.5q2 -30.5 2 -63.5t5.5 -67.5 t12.5 -66.5t21.5 -58.5t33.5 -47t48 -32.5t66 -12q43 0 75.5 14t51 47t30 58.5t14.5 77.5t4 73t1 74q0 303 -41 376.5t-139 73.5q-41 0 -73 -14t-50.5 -39t-31.5 -56.5t-18.5 -68.5t-9.5 -74t-2 -71.5t0 -65.5q-2 -27 0 -57.5z" />
<glyph unicode="&#x153;" horiz-adv-x="1646" d="M35 436q0 213 143.5 339t360.5 126q186 0 323 -88q127 88 291 88q147 0 267 -78t165 -215q29 -87 29 -237h-535q6 -45 12.5 -73t21.5 -58.5t44 -45t72 -14.5q111 0 127 121h248v-201q-238 -125 -453 -125q-84 0 -146.5 20.5t-142.5 67.5q-129 -88 -330 -88 q-217 0 -357 124t-140 337zM428 434q0 -174 114.5 -174t114.5 174q0 176 -114.5 176t-114.5 -176zM1077 518h187q-2 47 -5.5 75t-26 57.5t-61.5 29.5q-31 0 -50 -13.5t-28.5 -45t-11.5 -48t-4 -55.5z" />
<glyph unicode="&#x178;" horiz-adv-x="1306" d="M-6 1065v301h711v-301h-80l159 -236l27 48q25 45 49.5 94t24.5 59q0 20 -19.5 28.5t-42 7.5t-41.5 -1v301h531v-301q-41 4 -60 4q-66 0 -100.5 -28.5t-71.5 -98.5l-180 -342v-299h133v-301h-729v301h131v260l-352 504h-90zM274 1632q0 74 55.5 126t129.5 52q76 0 131 -52 t55 -128t-53 -133t-129 -57q-80 0 -134.5 56t-54.5 136zM745 1632q0 74 55.5 126t129.5 52q76 0 131 -52t55 -128t-53 -133t-129 -57q-80 0 -134.5 56t-54.5 136z" />
<glyph unicode="&#x2c6;" horiz-adv-x="1036" d="M137 997l228 369h325l209 -369h-344l-82 152l-92 -152h-244z" />
<glyph unicode="&#x2dc;" horiz-adv-x="1073" d="M137 1022v25q0 137 55.5 230t182.5 93q63 0 119.5 -33.5t98.5 -66.5t71 -33q76 0 75 109h199q-4 -74 -6 -103t-18.5 -84t-49.5 -90q-66 -70 -164 -70q-82 0 -178 65.5t-129 65.5q-63 0 -63 -108h-193z" />
<glyph unicode="&#x2000;" horiz-adv-x="946" />
<glyph unicode="&#x2001;" horiz-adv-x="1892" />
<glyph unicode="&#x2002;" horiz-adv-x="946" />
<glyph unicode="&#x2003;" horiz-adv-x="1892" />
<glyph unicode="&#x2004;" horiz-adv-x="630" />
<glyph unicode="&#x2005;" horiz-adv-x="473" />
<glyph unicode="&#x2006;" horiz-adv-x="315" />
<glyph unicode="&#x2007;" horiz-adv-x="315" />
<glyph unicode="&#x2008;" horiz-adv-x="236" />
<glyph unicode="&#x2009;" horiz-adv-x="378" />
<glyph unicode="&#x200a;" horiz-adv-x="105" />
<glyph unicode="&#x2010;" horiz-adv-x="536" d="M0 328v311h537v-311h-537z" />
<glyph unicode="&#x2011;" horiz-adv-x="536" d="M0 328v311h537v-311h-537z" />
<glyph unicode="&#x2012;" horiz-adv-x="536" d="M0 328v311h537v-311h-537z" />
<glyph unicode="&#x2013;" d="M68 573v246h888v-246h-888z" />
<glyph unicode="&#x2014;" horiz-adv-x="1607" d="M0 328v311h1608v-311h-1608z" />
<glyph unicode="&#x2018;" horiz-adv-x="665" d="M88 846l281 547h206l-151 -547h-336z" />
<glyph unicode="&#x2019;" horiz-adv-x="665" d="M88 819l154 547h333l-280 -547h-207z" />
<glyph unicode="&#x201a;" horiz-adv-x="665" d="M88 -178l154 547h333l-280 -547h-207z" />
<glyph unicode="&#x201c;" horiz-adv-x="1128" d="M88 819l281 547h206l-151 -547h-336zM553 819l281 547h206l-151 -547h-336z" />
<glyph unicode="&#x201d;" horiz-adv-x="1128" d="M88 819l154 547h333l-280 -547h-207zM553 819l154 547h333l-280 -547h-207z" />
<glyph unicode="&#x201e;" horiz-adv-x="1128" d="M88 -178l154 547h333l-280 -547h-207zM553 -178l154 547h333l-280 -547h-207z" />
<glyph unicode="&#x2022;" horiz-adv-x="1366" d="M401 696.5q0 116.5 83 201.5t200 85t199 -85t82 -201.5t-82 -201.5t-199 -85t-200 85t-83 201.5z" />
<glyph unicode="&#x2026;" horiz-adv-x="1947" d="M98 186q0 96 63.5 154.5t162 58.5t163 -57t64.5 -155.5t-64.5 -156t-163 -57.5t-162 57.5t-63.5 155.5zM748 186.5q0 96.5 63 154.5t161.5 58t163 -57t64.5 -155.5t-64.5 -156t-163 -57.5t-161.5 58.5t-63 155zM1397 186.5q0 96.5 63.5 154.5t161.5 58t162.5 -57 t64.5 -155.5t-64.5 -156t-162.5 -57.5t-161.5 58.5t-63.5 155z" />
<glyph unicode="&#x202f;" horiz-adv-x="378" />
<glyph unicode="&#x2039;" horiz-adv-x="698" d="M55 451l209 397h352l-213 -397l213 -406h-352z" />
<glyph unicode="&#x203a;" horiz-adv-x="698" d="M82 45l211 406l-211 397h352l209 -397l-209 -406h-352z" />
<glyph unicode="&#x205f;" horiz-adv-x="473" />
<glyph unicode="&#x2122;" horiz-adv-x="1880" d="M29 1051v315h690v-315h-129l-31 143h-51v-436h82v-170h-422v170h76v436h-51l-37 -143h-127zM766 588v170q43 0 58.5 20.5t15.5 65.5v350h-74v172h379l158 -377l129 377h397v-172h-74v-436h74v-170h-397v170h59v307l-174 -477h-127l-201 477v-211q0 -29 2 -46t16.5 -34.5 t41.5 -17.5q4 0 10 1t10 1v-170h-303z" />
<glyph unicode="&#xe000;" horiz-adv-x="880" d="M0 0v881h881v-881h-881z" />
<glyph unicode="&#xfb01;" horiz-adv-x="1308" d="M45 0v254h68v371h-66v252h66v55q0 215 128 338t345 123q27 0 76 -4v-349q-98 -2 -120 -32.5t-22 -130.5h137v-252h-137v-371h84v-254h-559zM725 0v254h70v369h-70v254h471v-623h70v-254h-541zM729 1171q0 90 72.5 148.5t165 58.5t165 -58.5t72.5 -148.5q0 -92 -72.5 -150 t-165 -58t-165 58t-72.5 150z" />
<glyph unicode="&#xfb02;" horiz-adv-x="1288" d="M45 0v254h68v371h-66v252h66v55q0 215 128 338t345 123q27 0 76 -4v-349q-98 -2 -120 -32.5t-22 -130.5h137v-252h-137v-371h84v-254h-559zM715 0v254h67v858h-67v254h471v-1112h67v-254h-538z" />
</font>
</defs>
</svg>
