<?xml version="1.0" standalone="no"?>
<!DOCTYPE svg PUBLIC "-//W3C//DTD SVG 1.1//EN" "http://www.w3.org/Graphics/SVG/1.1/DTD/svg11.dtd" >
<svg xmlns="http://www.w3.org/2000/svg">
<metadata></metadata>
<defs>
<font id="betonef_lightregular" horiz-adv-x="1024" >
<font-face units-per-em="2048" ascent="1638" descent="-410" />
<missing-glyph horiz-adv-x="512" />
<glyph horiz-adv-x="2048" />
<glyph horiz-adv-x="2048" />
<glyph unicode="&#xd;" horiz-adv-x="681" />
<glyph unicode=" "  horiz-adv-x="512" />
<glyph unicode="&#x09;" horiz-adv-x="512" />
<glyph unicode="&#xa0;" horiz-adv-x="512" />
<glyph unicode="!" horiz-adv-x="477" d="M186 36.5q0 20.5 15.5 36t36 15.5t36 -15.5t15.5 -36t-15.5 -35.5t-36 -15t-36 15t-15.5 35.5zM213 1366h49v-1169h-39z" />
<glyph unicode="&#x22;" horiz-adv-x="534" d="M129 1366h59l-8 -551h-43zM346 1366h57l-8 -551h-41z" />
<glyph unicode="#" horiz-adv-x="1228" d="M111 465l8 53h246l53 356h-246l6 54h246l68 438h55l-66 -438h359l65 438h58l-66 -438h238l-9 -54h-237l-53 -356h237l-8 -53h-240l-67 -465h-58l70 465h-358l-70 -465h-55l69 465h-245zM420 518h360l51 356h-358z" />
<glyph unicode="$" horiz-adv-x="1009" d="M154 0v354h39q18 -156 122 -245q66 -57 146 -70v645q-150 66 -226.5 143.5t-76.5 216.5q0 141 80.5 229.5t222.5 104.5v135h53v-135q160 -25 244 -145l16 133h39v-356h-39q-35 299 -260 317v-608q35 -12 72 -28.5t68.5 -32t63.5 -39t56 -52.5q84 -100 84 -227 q0 -152 -95 -248t-249 -108v-189h-53v189q-154 23 -252 149l-16 -133h-39zM213 1038q0 -63 16.5 -108t56.5 -81t73.5 -55.5t101.5 -54.5v586q-119 -8 -183.5 -86t-64.5 -201zM514 35q129 14 208 95t79 210t-73 198.5t-214 127.5v-631z" />
<glyph unicode="%" horiz-adv-x="991" d="M0 10l946 1374l45 -30l-944 -1374zM61 1048.5q0 71.5 15.5 138t62.5 123t121 56.5q106 0 153.5 -98t47.5 -219q0 -72 -16.5 -138.5t-63.5 -122t-121 -55.5t-121 56.5t-62.5 122t-15.5 137zM121 1049q0 -39 5 -79t19.5 -85t44 -74t70.5 -29t70.5 29t43 74t18.5 85t5 78.5 t-5 77.5t-18.5 84t-43 74t-70.5 29q-55 0 -88 -51.5t-42 -104.5t-9 -108zM539 315q0 121 47 219.5t153 98.5q74 0 121 -56.5t62.5 -123t15.5 -138.5q0 -121 -47 -218t-154 -97q-74 0 -121 56.5t-62 122t-15 136.5zM598 315q0 -37 6 -77.5t19.5 -86t43 -74t70.5 -28.5 t71 28.5t43 74t19.5 86t6.5 77.5q0 53 -9.5 107.5t-43 106t-87 51.5t-87.5 -51.5t-43 -105.5t-9 -108z" />
<glyph unicode="&#x26;" horiz-adv-x="1157" d="M41 219q0 131 141 262q31 29 178 156q-147 156 -147 305q0 102 66.5 171t169.5 69q90 0 157.5 -61.5t67.5 -151.5q0 -51 -22.5 -101.5t-58.5 -87.5t-78 -75.5t-79 -67.5l238 -270q2 4 47 71.5t83 125t72.5 114.5t34.5 65q0 18 -46 21.5t-60 -0.5v49h311v-49 q-31 2 -55.5 0t-37.5 -3t-27.5 -13.5t-27 -26.5t-32.5 -47l-229 -346l245 -281h148v-47h-180l-246 279q-43 -61 -60.5 -84t-61.5 -74t-77 -72.5t-82 -42t-102 -20.5q-104 0 -177 65.5t-73 167.5zM96 221q0 -80 56.5 -133t136.5 -53q59 0 112.5 27.5t92 70.5t77.5 93t68 93 l-244 279l-88 -76q-27 -25 -56.5 -48t-57 -53t-49 -59.5t-35 -66.5t-13.5 -74zM266 952q0 -119 137 -276q174 150 203 215q15 31 15 74q0 74 -51.5 121t-125.5 47q-80 0 -129 -50.5t-49 -130.5z" />
<glyph unicode="'" horiz-adv-x="317" d="M129 1366h59l-8 -551h-43z" />
<glyph unicode="(" horiz-adv-x="454" d="M82 496q0 451 186 897h43q-88 -256 -124.5 -446.5t-36.5 -440.5q0 -438 151 -854h-45q-174 451 -174 844z" />
<glyph unicode=")" horiz-adv-x="454" d="M143 1393h43q187 -446 187 -897q0 -397 -174 -844h-45q150 418 149 854q0 299 -51 528q-16 80 -109 359z" />
<glyph unicode="*" horiz-adv-x="811" d="M139 1171l17 48l227 -74v237h49v-237l223 74l17 -48l-226 -73l142 -193l-41 -28l-139 192l-142 -192l-41 28l144 193z" />
<glyph unicode="+" d="M68 645v51h417v379h54v-379h417v-51h-417v-379h-54v379h-417z" />
<glyph unicode="," horiz-adv-x="477" d="M104 -397l113 538h66l-140 -538h-39z" />
<glyph unicode="-" horiz-adv-x="393" d="M0 356v52h393v-52h-393z" />
<glyph unicode="." horiz-adv-x="477" d="M188 36.5q0 20.5 14.5 36t37.5 15.5q20 0 35.5 -15.5t15.5 -36t-15.5 -35.5t-35.5 -15q-23 0 -37.5 15t-14.5 35.5z" />
<glyph unicode="/" horiz-adv-x="933" d="M0 -264l803 1650l49 -24l-803 -1649z" />
<glyph unicode="0" horiz-adv-x="1009" d="M104 681.5q0 106.5 18.5 215.5t59.5 223.5t125 186t199 71.5t198.5 -71.5t124.5 -186t59.5 -223.5t18.5 -215.5t-18.5 -215t-59.5 -223t-124.5 -186t-198.5 -71.5t-199 71.5t-125 186t-59.5 223t-18.5 215zM158 682q0 -150 28 -272q14 -63 38 -123t62 -119t92 -96 t120 -37q129 0 212 120.5t115 270.5q27 125 27 260q0 147 -29 275q-23 90 -57.5 166.5t-104 140t-155.5 63.5q-90 0 -161 -67.5t-106.5 -148.5t-54.5 -171q-27 -125 -26 -262z" />
<glyph unicode="1" horiz-adv-x="1009" d="M322 0v47h165v1188h-165v51q82 2 130 18.5t91 69.5v-1327h166v-47h-387z" />
<glyph unicode="2" horiz-adv-x="1009" d="M96 1010q0 160 115 264t276 104q178 0 287 -108.5t109 -286.5q0 -299 -410 -672l-287 -264h441q72 0 106.5 4t61 17.5t29.5 38t11.5 67.5t6.5 107h45v-281h-778v47q369 330 507 490q213 240 213 450q0 158 -93 251t-251 93q-137 0 -236 -89t-99 -224q0 -176 184 -305 l-29 -47q-209 131 -209 344z" />
<glyph unicode="3" horiz-adv-x="1009" d="M109 100v76q174 -141 335 -141q166 0 268.5 119.5t102.5 289.5q0 154 -94 255.5t-248 101.5q-70 0 -143 -25v49l469 492h-441q-111 0 -149.5 -16.5t-46.5 -67.5t-10 -148h-43v281h757v-49l-444 -469q37 4 57 4q170 0 280.5 -121t110.5 -291q0 -190 -119.5 -322 t-308.5 -132q-147 0 -333 114z" />
<glyph unicode="4" horiz-adv-x="1009" d="M92 426v39l559 901h45v-893h207v-47h-207v-379h174v-47h-393v47h164v379h-549zM154 473h487v782z" />
<glyph unicode="5" horiz-adv-x="1009" d="M150 111v79q172 -156 344 -155q162 0 265 108.5t103 270.5q0 178 -104.5 280.5t-282.5 102.5q-109 0 -178.5 -39t-146.5 -131v739h684v-49h-629v-559q129 88 276 88q188 0 312.5 -115t124.5 -303q0 -193 -121 -317.5t-312 -124.5q-166 0 -335 125z" />
<glyph unicode="6" horiz-adv-x="1009" d="M123 371q0 63 26.5 140t53 125t73.5 126l363 604h63l-413 -686q115 78 237 78q158 0 271.5 -105.5t113.5 -263.5q0 -166 -113.5 -284.5t-279.5 -118.5q-164 0 -279.5 110.5t-115.5 274.5zM178 360q0 -139 103.5 -232t245 -93t236.5 103.5t95 244.5q0 139 -96 233.5 t-236 94.5q-147 0 -247.5 -101.5t-100.5 -249.5z" />
<glyph unicode="7" horiz-adv-x="1009" d="M137 1079v287h811v-49l-721 -1317h-65l723 1317h-512q-53 0 -88 -10.5t-55.5 -24.5t-31 -49t-13.5 -63.5t-5 -90.5h-43z" />
<glyph unicode="8" horiz-adv-x="1009" d="M113 369q0 145 96 254q49 57 151 96q-98 59 -144 131t-46 180q0 154 99.5 252t252.5 98q150 0 249 -98t99 -250q0 -203 -196 -313q92 -45 139 -101q84 -98 84 -237q0 -168 -110.5 -281.5t-278.5 -113.5q-166 0 -280.5 108.5t-114.5 274.5zM170 367q0 -139 97.5 -235.5 t236.5 -96.5q145 0 242.5 96.5t97.5 241.5q0 152 -93.5 233.5t-246.5 81.5q-147 0 -240.5 -88t-93.5 -233zM223 1034q0 -135 81 -219t214 -84q135 0 216 84t81 219q0 133 -82 215t-215 82q-131 0 -213 -82t-82 -215z" />
<glyph unicode="9" horiz-adv-x="1009" d="M94 963q0 166 115 284.5t280 118.5q164 0 280 -110.5t116 -274.5q0 -63 -27 -140t-53.5 -125t-73.5 -126l-362 -604h-64l414 686q-115 -78 -238 -78q-158 0 -272.5 105.5t-114.5 263.5zM150 969q0 -139 96 -233.5t235 -94.5q147 0 247.5 101.5t100.5 248.5 q0 141 -104 233.5t-246 92.5q-139 0 -234 -103.5t-95 -244.5z" />
<glyph unicode=":" horiz-adv-x="477" d="M188 36.5q0 20.5 14.5 36t37.5 15.5q20 0 35.5 -15.5t15.5 -36t-15.5 -35.5t-35.5 -15q-23 0 -37.5 15t-14.5 35.5zM188 712.5q0 20.5 14.5 36t37.5 15.5q20 0 35.5 -15.5t15.5 -36t-15.5 -35.5t-35.5 -15q-23 0 -37.5 15t-14.5 35.5z" />
<glyph unicode=";" horiz-adv-x="477" d="M104 -397l113 538h66l-140 -538h-39zM188 712.5q0 20.5 14.5 36t37.5 15.5q20 0 35.5 -15.5t15.5 -36t-15.5 -35.5t-35.5 -15q-23 0 -37.5 15t-14.5 35.5z" />
<glyph unicode="&#x3c;" d="M68 643v53l888 387v-57l-825 -356l825 -357v-55z" />
<glyph unicode="=" d="M68 539v51h888v-51h-888zM68 817v51h888v-51h-888z" />
<glyph unicode="&#x3e;" d="M68 258v55l825 357l-825 356v57l888 -387v-53z" />
<glyph unicode="?" horiz-adv-x="790" d="M137 1032v334h37l16 -98q92 111 232 110q117 0 202 -78.5t85 -195.5q0 -186 -220 -297q-37 -20 -71.5 -35.5t-65 -38t-53.5 -47t-36 -61.5t-13 -82q0 -94 55 -150.5t150 -56.5q74 0 139 45v-55q-68 -37 -135 -37q-117 0 -190.5 70.5t-73.5 187.5q0 92 47 154.5t114.5 96 t135 65.5t114.5 90.5t47 144.5q0 102 -69.5 167.5t-173.5 65.5q-219 0 -236 -299h-37zM371 36.5q0 20.5 15 36t35.5 15.5t36 -15.5t15.5 -36t-15.5 -35.5t-36 -15t-35.5 15t-15 35.5z" />
<glyph unicode="@" horiz-adv-x="1501" d="M66 684q0 295 204.5 495.5t499.5 200.5q272 0 459.5 -170t187.5 -440q0 -98 -28 -197q-37 -115 -116 -204.5t-183 -89.5q-70 0 -108 43t-38 114q-96 -158 -256 -157q-135 0 -211 97t-76 236q0 168 98.5 295t260.5 127q193 0 248 -203l34 175h48l-91 -463 q-12 -70 -12 -105q0 -51 27.5 -81.5t77.5 -30.5q94 0 161.5 88t96.5 194q20 76 20 160q0 252 -173 407.5t-429 155.5q-274 0 -462.5 -187.5t-188.5 -461.5q0 -201 106.5 -370t288.5 -242q127 -51 293 -52q223 0 469 123l20 -43q-233 -125 -489 -125q-319 0 -529 197 t-210 514zM455 614q0 -117 61.5 -202.5t173.5 -85.5q96 0 164 67.5t94.5 155.5t26.5 182v12q0 106 -56.5 175t-158.5 69q-137 0 -221 -115.5t-84 -257.5z" />
<glyph unicode="A" horiz-adv-x="1161" d="M-29 0v47q92 0 108.5 10.5t47.5 94.5l410 1165h-140v49h197l461 -1319h135v-47h-313v47h122l-151 436h-545l-121 -346q-18 -55 -18 -63q0 -27 45 -27h72v-47h-310zM315 522h519l-261 740z" />
<glyph unicode="B" horiz-adv-x="1064" d="M143 0v47h123v1270h-123v49h394q160 0 260 -92t100 -250q0 -254 -238 -330q135 -20 213 -107.5t78 -224.5q0 -176 -117.5 -269t-297.5 -93h-392zM322 47h182q201 0 297 90q96 86 96 225q0 111 -63.5 190t-171.5 103q-63 14 -168 15h-172v-623zM322 717h198 q147 0 233.5 84t86.5 231q0 100 -56.5 177t-152.5 98q-43 10 -156 10h-153v-600z" />
<glyph unicode="C" horiz-adv-x="1247" d="M76 674q0 293 175 499.5t464 206.5q119 0 229 -37q63 -23 99 -49t83 -82v129h48v-321h-29q-18 162 -127 233q-117 78 -289 78q-276 0 -438 -190.5t-162 -470.5q0 -283 182.5 -459t464.5 -176q88 0 186.5 32.5t141.5 94.5q37 51 41 160h29v-183q-185 -153 -409 -153h-3 q-301 0 -493.5 193.5t-192.5 494.5z" />
<glyph unicode="D" horiz-adv-x="1347" d="M143 0v47h125v1270h-125v49h426q168 0 260 -27q221 -59 332 -238t111 -419q0 -203 -88 -372t-262 -251q-121 -59 -312 -59h-467zM324 47h204q248 0 361 53q162 76 245 235t83 347q0 303 -163 469t-466 166h-264v-1270z" />
<glyph unicode="E" horiz-adv-x="1034" d="M143 0v47h121v1270h-121v49h779v-319h-39l-25 270h-539v-590h343v160h47v-371h-47v170h-343v-639h551l23 277h43v-324h-793z" />
<glyph unicode="F" horiz-adv-x="974" d="M143 0v47h125v1270h-125v49h777v-311h-39l-21 262h-536v-584h340v152h45v-369h-45v168h-340v-637h133v-47h-314z" />
<glyph unicode="G" horiz-adv-x="1349" d="M76 678q0 297 170 498.5t463 201.5q96 0 195.5 -28.5t162.5 -85.5q10 -10 28.5 -30t24.5 -26l15 158h39v-379h-39q-10 150 -78 219q-123 125 -346 125q-250 0 -404 -153q-88 -88 -133 -227.5t-45 -276.5q0 -276 167 -457.5t441 -181.5q158 0 284 70.5t148 213.5 q10 66 11 121q0 35 -3 54.5t-20.5 35t-50.5 15.5h-170v47h291v-559h-37l-16 160q-57 -84 -127 -125q-139 -82 -316 -82q-295 0 -475 196.5t-180 495.5z" />
<glyph unicode="H" horiz-adv-x="1402" d="M143 0v47h125v1270h-125v49h299v-49h-120v-580h761v580h-122v49h299v-49h-121v-1270h121v-47h-299v47h122v645h-761v-645h120v-47h-299z" />
<glyph unicode="I" horiz-adv-x="608" d="M158 0v47h116v1270h-116v49h293v-49h-121v-1270h121v-47h-293z" />
<glyph unicode="J" horiz-adv-x="739" d="M4 20v254h41q14 -57 25.5 -87.5t35 -71.5t59.5 -60.5t87 -19.5q92 0 135 59.5t43 153.5v1069h-129v49h309v-49h-125v-1065q0 -119 -57 -192.5t-174 -73.5q-123 0 -195 108l-14 -74h-41z" />
<glyph unicode="K" horiz-adv-x="1142" d="M143 0v47h123v1270h-123v49h308v-49h-132v-596l555 551q18 18 19 28q0 16 -25 17h-94v49h344v-49q-34 1 -59 1h-23q-30 -1 -52.5 -13.5t-59.5 -49.5l-553 -546l669 -662h123v-47h-153l-691 680v-633h132v-47h-308z" />
<glyph unicode="L" horiz-adv-x="866" d="M143 0v47h117v1270h-117v49h293v-49h-121v-1270h418l33 309h35v-356h-658z" />
<glyph unicode="M" horiz-adv-x="1644" d="M143 0v47q31 0 53.5 -1t37 13.5t14.5 46.5v1211h-105v49h162l510 -1182l500 1182h186v-49h-115v-1270h115v-47h-301v47h131v1219l-516 -1219l-512 1188v-1129q0 -43 15.5 -51t64.5 -8h45v-47h-285z" />
<glyph unicode="N" horiz-adv-x="1445" d="M143 0v47q35 0 61.5 -2t43 12.5t16.5 48.5v1211h-121v49h170l815 -1235v1126q0 43 -15 51.5t-64 8.5h-54v49h308v-49h-42.5t-29 -2t-22.5 -2t-13 -7.5t-10 -10.5t-3 -17t-3 -23.5t2 -34v-40.5v-1180h-31l-834 1260v-1154q0 -43 15.5 -51t64.5 -8h52v-47h-306z" />
<glyph unicode="O" horiz-adv-x="1527" d="M76 682q0 289 199.5 492.5t486.5 203.5q289 0 489.5 -203.5t200.5 -492.5t-200.5 -492.5t-489.5 -203.5q-287 0 -486.5 204.5t-199.5 491.5zM129 682q0 -266 185.5 -456.5t449.5 -190.5t448.5 191.5t184.5 455.5q0 266 -184.5 457.5t-448.5 191.5q-266 0 -450.5 -191.5 t-184.5 -457.5z" />
<glyph unicode="P" horiz-adv-x="921" d="M143 0v47h117v1270h-117v49h312q217 0 321 -106q98 -100 98 -250q0 -113 -60 -206t-163 -130q-68 -25 -167 -28q-42 -1 -80 -1q-50 0 -91 2v-600h131v-47h-301zM313 696h131q61 0 97.5 3t84.5 17.5t85 45.5q108 88 108 242q0 160 -96 236.5t-260 76.5h-150v-621z" />
<glyph unicode="Q" horiz-adv-x="1533" d="M76 684q0 289 199.5 491.5t488.5 202.5t489.5 -204.5t200.5 -493.5q0 -248 -162 -449q-55 -70 -105 -105.5t-138 -78.5h401v-47h-543q-4 0 -35 -6q-43 -8 -102 -8q-289 0 -491.5 204.5t-202.5 493.5zM129 682q0 -266 185.5 -456.5t449.5 -190.5q266 0 450.5 190.5 t184.5 456.5t-184.5 457.5t-450.5 191.5t-450.5 -191.5t-184.5 -457.5z" />
<glyph unicode="R" horiz-adv-x="1073" d="M143 0v47h113v1270h-113v49h349q182 0 272 -80q104 -92 104 -256q0 -174 -100 -265t-279 -99l435 -619h129v-47h-164l-459 664h-121v-617h121v-47h-287zM309 709h121q197 0 285 77q100 88 100 244q0 287 -323 287h-183v-608z" />
<glyph unicode="S" horiz-adv-x="931" d="M117 10v352h37q12 -168 116 -253q90 -74 197 -74q129 0 211 89t82 220q0 96 -43 160.5t-112.5 100.5t-144.5 63.5t-154 73.5t-124 110q-59 84 -59 192q0 145 88 239.5t231 94.5q166 0 275 -147l16 135h39v-360h-39q-14 172 -96 247q-84 78 -193 78q-121 0 -193.5 -80 t-72.5 -202q0 -115 65.5 -189t159 -112.5t187.5 -78.5t159.5 -120t65.5 -205q0 -154 -98.5 -256t-251.5 -102q-94 0 -160.5 35.5t-134.5 113.5l-16 -125h-37z" />
<glyph unicode="T" horiz-adv-x="940" d="M35 1047v319h870v-319h-41l-18 270h-350v-1270h125v-47h-297v47h116v1270h-346l-22 -270h-37z" />
<glyph unicode="U" horiz-adv-x="1357" d="M121 1317v49h305v-49h-129v-817q0 -74 4 -121t24.5 -107.5t59.5 -103.5q119 -133 295 -133q119 0 223.5 71.5t134.5 184.5q23 82 23 209v817h-129v49h305v-49h-121v-821q0 -119 -18.5 -201t-77.5 -154q-132 -155 -339 -155h-3q-133 0 -252 77.5t-158 200.5 q-26 81 -26 222v10v821h-121z" />
<glyph unicode="V" horiz-adv-x="1148" d="M-35 1317v49h303v-49h-131l441 -1219l385 1129q16 49 16 59q0 12 -6 19.5t-16.5 9.5t-20.5 2h-21h-61v49h330v-49q-90 0 -117 -16.5t-55 -96.5l-416 -1204h-43l-473 1317h-115z" />
<glyph unicode="W" horiz-adv-x="1775" d="M-35 1317v49h305v-49h-129l414 -1186l313 1235h50l327 -1235l354 1073q20 61 21 84q0 29 -51 29h-86v49h327v-49q-86 0 -108.5 -18.5t-52.5 -108.5l-385 -1190h-41l-332 1255l-311 -1255h-37l-461 1317h-117z" />
<glyph unicode="X" horiz-adv-x="1159" d="M-6 0v47q96 0 128 21.5t89 111.5l334 529l-402 608h-131v49h316v-49h-117l362 -559l291 448q41 61 41 84q0 14 -8 21.5t-19.5 6.5t-25.5 -1h-66v49h338v-49q-98 0 -126.5 -17.5t-84.5 -105.5l-309 -485l434 -662h127v-47h-313v47h123l-402 612l-329 -520 q-33 -45 -33 -67.5t41 -25.5t57 1v-47h-315z" />
<glyph unicode="Y" horiz-adv-x="1122" d="M-35 1317v49h309v-49h-127l402 -637l354 545q29 43 29 65q0 27 -39 27h-8h-72v49h344v-49q-92 0 -121.5 -14.5t-77.5 -85.5l-383 -596v-574h125v-47h-303v47h123v574l-438 696h-117z" />
<glyph unicode="Z" horiz-adv-x="1056" d="M51 0v47l887 1270h-813l-25 -270h-32v319h938v-49l-885 -1270h827l25 281h33v-328h-955z" />
<glyph unicode="[" horiz-adv-x="462" d="M137 -342v1708h203v-49h-147v-1610h147v-49h-203z" />
<glyph unicode="\" d="M49 1536h57l818 -1706h-56z" />
<glyph unicode="]" horiz-adv-x="462" d="M123 -293h149v1610h-149v49h205v-1708h-205v49z" />
<glyph unicode="^" d="M86 797l389 569h74l389 -569h-70l-358 526l-356 -526h-68z" />
<glyph unicode="_" d="M0 -172h1024v-49h-1024v49z" />
<glyph unicode="`" horiz-adv-x="489" d="M137 1174h76l139 -252h-53z" />
<glyph unicode="a" horiz-adv-x="856" d="M102 238q0 113 77 184.5t192 71.5q129 0 225 -113v166q0 92 -60.5 138t-156.5 46q-184 0 -197 -121h-49v109q100 59 236 59q281 0 280 -231v-500h117v-47h-170v88q-106 -102 -240 -102q-109 0 -181.5 71.5t-72.5 180.5zM154 233q0 -86 63.5 -142t151.5 -56q86 0 158.5 54 t72.5 138q0 94 -68.5 155.5t-163 61.5t-154.5 -58t-60 -153z" />
<glyph unicode="b" horiz-adv-x="1032" d="M84 0v47h115v1270h-115v49h170v-766q61 92 134 135t179 43q172 0 276.5 -110.5t104.5 -282.5q0 -174 -100 -286.5t-273 -112.5q-111 0 -182 44t-139 140v-170h-170zM250 365q0 -139 93 -234.5t232 -95.5q143 0 230.5 100.5t87.5 245.5q0 150 -89 250t-236.5 100 t-232.5 -107.5t-85 -258.5z" />
<glyph unicode="c" horiz-adv-x="841" d="M84 381q0 170 100.5 283.5t268.5 113.5q156 0 249 -100l15 86h39v-254h-54q-8 106 -77.5 163.5t-178.5 57.5q-141 0 -224 -98t-83 -241.5t86 -250t226 -106.5q109 0 179 48t72 153h54v-93q-124 -157 -305 -157h-2q-162 0 -263.5 115.5t-101.5 279.5z" />
<glyph unicode="d" horiz-adv-x="1032" d="M84 383q0 166 105.5 280.5t269.5 114.5q197 0 317 -170v709h-114v49h169v-1319h117v-47h-172v152q-135 -166 -317 -166q-162 0 -268.5 116.5t-106.5 280.5zM133 383q0 -145 91 -246.5t235 -101.5q145 0 232 96.5t87 243.5q0 152 -84 254t-231 102q-145 0 -237.5 -101.5 t-92.5 -246.5z" />
<glyph unicode="e" horiz-adv-x="860" d="M84 389q0 160 96 274.5t252 114.5q162 0 252 -110.5t90 -276.5h-631q4 -154 85 -255t231 -101q100 0 169.5 47t92.5 141h53v-61q-129 -176 -321 -176q-164 0 -266.5 118.5t-102.5 284.5zM143 438h580q-4 123 -86 208t-203 85q-123 0 -197.5 -83t-93.5 -210z" />
<glyph unicode="f" horiz-adv-x="499" d="M98 0v47h111v670h-111v47h111v399q0 117 40 160t152 43v-49h-41q-35 0 -55 -11.5t-28.5 -38t-10.5 -46t-2 -58.5v-399h137v-47h-137v-670h137v-47h-303z" />
<glyph unicode="g" horiz-adv-x="1036" d="M84 377q0 168 105.5 284.5t271.5 116.5q109 0 179.5 -42t141.5 -136v164h170v-47h-116v-735q0 -162 -104.5 -256.5t-268.5 -94.5q-92 0 -175 37t-126 111q-29 47 -39 139h55q35 -240 297 -240q131 0 219 72t88 201v209q-72 -88 -144.5 -131t-174.5 -43 q-162 0 -270.5 113.5t-108.5 277.5zM137 381q0 -141 91 -243.5t231 -102.5q141 0 233 101.5t92 244.5t-94 246.5t-237 103.5q-139 0 -227.5 -104.5t-88.5 -245.5z" />
<glyph unicode="h" horiz-adv-x="980" d="M84 0v47h117v1270h-117v49h170v-735q113 147 254 147q113 0 186.5 -73.5t73.5 -188.5v-469h115v-47h-279v47h111v436q0 248 -211 248q-72 0 -134.5 -43t-90.5 -110q-25 -53 -25 -150v-381h113v-47h-283z" />
<glyph unicode="i" horiz-adv-x="495" d="M104 0v47h113v670h-113v47h168v-717h117v-47h-285zM193 1105.5q0 22.5 16 39t38.5 16.5t39 -16.5t16.5 -39t-16.5 -38.5t-39 -16t-38.5 16t-16 38.5z" />
<glyph unicode="j" horiz-adv-x="415" d="M98 -328q117 31 117 203v842h-117v47h172v-891q0 -211 -172 -258v57zM170 1105.5q0 22.5 16.5 39t39 16.5t39 -16.5t16.5 -39t-16.5 -38.5t-39 -16t-39 16t-16.5 38.5z" />
<glyph unicode="k" horiz-adv-x="765" d="M84 0v47h117v1270h-117v49h172v-967l307 318h-108v47h301v-47h-125l-326 -332l326 -338h125v-47h-154l-346 356v-309h115v-47h-287z" />
<glyph unicode="l" horiz-adv-x="452" d="M84 0v47h115v1270h-115v49h168v-1319h117v-47h-285z" />
<glyph unicode="m" horiz-adv-x="1406" d="M104 0v47h109v670h-109v47h162v-146q100 160 248 160q76 0 136.5 -44t82.5 -116q94 160 240 160q109 0 167 -75.5t58 -188.5v-467h111v-47h-262v47h98v455q0 100 -43 164.5t-139 64.5q-117 0 -173.5 -89t-56.5 -214v-381h96v-47h-249v47h100v471q0 92 -49 152.5 t-139 60.5q-61 0 -112.5 -38t-80.5 -97q-33 -66 -33 -201v-348h101v-47h-263z" />
<glyph unicode="n" horiz-adv-x="1001" d="M104 0v47h117v670h-117v47h170v-133q113 147 254 147q113 0 186.5 -73.5t73.5 -188.5v-469h115v-47h-278v47h110v436q0 248 -211 248q-72 0 -134 -43t-91 -110q-25 -53 -25 -150v-381h113v-47h-283z" />
<glyph unicode="o" horiz-adv-x="966" d="M84 383q0 168 115.5 281.5t283.5 113.5q166 0 282 -114.5t116 -280.5q0 -168 -115 -282.5t-283 -114.5t-283.5 114.5t-115.5 282.5zM143 383q0 -143 98.5 -247.5t242 -104.5t241.5 104.5t98 247.5t-99 246.5t-240.5 103.5t-241 -103.5t-99.5 -246.5z" />
<glyph unicode="p" horiz-adv-x="1042" d="M84 -307h123v1024h-111v47h168v-160q129 174 322 174q168 0 270 -115.5t102 -287.5q0 -162 -106.5 -275.5t-265.5 -113.5q-201 0 -322 184v-477h111v-47h-291v47zM260 393q0 -147 86 -252.5t229.5 -105.5t235.5 100.5t92 243.5q0 147 -87 249.5t-230.5 102.5t-234.5 -97 t-91 -241z" />
<glyph unicode="q" horiz-adv-x="1034" d="M84 375q0 172 102.5 287.5t270.5 115.5q193 0 321 -174v160h168v-47h-110v-1024h122v-47h-290v47h110v477q-121 -184 -321 -184q-160 0 -266.5 113.5t-106.5 275.5zM139 379q0 -145 93.5 -244.5t236.5 -99.5t228 106.5t85 251.5q0 143 -91 240.5t-234.5 97.5 t-230.5 -102.5t-87 -249.5z" />
<glyph unicode="r" horiz-adv-x="579" d="M104 0v47h117v670h-117v47h170v-174q100 190 295 192v-65q-12 2 -37 2q-98 0 -158.5 -58.5t-80 -135t-19.5 -175.5v-303h111v-47h-281z" />
<glyph unicode="s" horiz-adv-x="712" d="M113 0v229h37q8 -92 66 -143t153 -51q90 0 142 43t52 129q0 68 -45 105.5t-108.5 55l-127 35t-108.5 59.5t-45 113q0 96 70.5 149.5t169.5 53.5q111 0 178 -82v68h41v-217h-41q-31 184 -195 184q-68 0 -118 -42t-50 -107q0 -61 45 -96t108.5 -51.5t127 -36t108.5 -67.5 t45 -128q0 -104 -67.5 -160.5t-173.5 -56.5q-119 0 -217 80l-10 -66h-37z" />
<glyph unicode="t" horiz-adv-x="516" d="M84 717v47h109v248l55 30v-278h158v-47h-158v-578q0 -104 71 -104q35 0 87 33v-54q-49 -28 -90 -28h-3q-121 0 -120 153v578h-109z" />
<glyph unicode="u" horiz-adv-x="972" d="M70 717v47h170v-483q0 -246 209 -246q72 0 135 42t92 109q22 53 22 142v8v381h-112v47h168v-717h114v-47h-170v135q-108 -149 -252 -149h-2q-113 0 -186.5 74.5t-73.5 187.5v469h-114z" />
<glyph unicode="v" horiz-adv-x="804" d="M-25 717v47h267v-47h-105l260 -627l258 627h-114v47h274v-47h-102l-295 -717h-43l-297 717h-103z" />
<glyph unicode="w" horiz-adv-x="1298" d="M-25 717v47h273v-47h-107l258 -645l222 692h49l227 -684l256 637h-113v47h269v-47h-97l-290 -717h-56l-221 666l-213 -666h-61l-289 717h-107z" />
<glyph unicode="x" horiz-adv-x="827" d="M-10 0v47h104l287 344l-260 326h-101v47h287v-47h-114l223 -281l233 281h-112v47h288v-47h-104l-272 -326l272 -344h119v-47h-289v47h98l-233 303l-254 -303h112v-47h-284z" />
<glyph unicode="y" horiz-adv-x="794" d="M-25 717v47h277v-47h-115l248 -647l266 647h-112v47h280v-47h-112l-428 -1045h208v-47h-286l153 375l-274 717h-105z" />
<glyph unicode="z" horiz-adv-x="714" d="M61 0v47l512 670h-426l-20 -156h-41v203h555v-47l-514 -670h446l33 211h35v-258h-580z" />
<glyph unicode="{" d="M340 492v34q72 25 95.5 72t23.5 131v397q0 141 55 207t191 66v-41q-106 -8 -148.5 -54.5t-42.5 -154.5v-420q0 -90 -25.5 -140t-101.5 -81q74 -31 100.5 -85t26.5 -142v-396q0 -115 40 -165t151 -56v-41q-152 0 -199 75t-47 234v357q0 86 -22.5 131t-96.5 72z" />
<glyph unicode="|" d="M485 -512v2048h54v-2048h-54z" />
<glyph unicode="}" d="M324 -336q106 8 147 55.5t41 153.5v420q0 90 25.5 139t103.5 80q-74 31 -101.5 86t-27.5 143v396q0 115 -40 165t-148 56v41q154 -2 198.5 -75t44.5 -237v-354q0 -86 23.5 -131t97.5 -72v-36q-72 -25 -96.5 -72t-24.5 -129v-397q0 -139 -54 -206t-189 -67v41z" />
<glyph unicode="~" horiz-adv-x="1366" d="M195 1255q53 92 112.5 144.5t147.5 52.5q82 0 232.5 -81t224 -81t121.5 43t95 123l41 -26q-109 -195 -260 -195q-82 0 -235.5 81t-220.5 81q-72 0 -120 -44t-95 -124z" />
<glyph unicode="&#xa1;" horiz-adv-x="477" d="M186 727.5q0 20.5 15.5 35.5t36 15t36 -14t15.5 -36.5t-15.5 -37t-36 -14.5t-36 15.5t-15.5 36zM213 -600l10 1167h39v-1167h-49z" />
<glyph unicode="&#xa2;" horiz-adv-x="1011" d="M166 692q0 213 145 326q70 51 193 74v139h53v-139q82 -12 132 -35t97 -78l13 82h39v-248h-52q-16 111 -67 162t-162 65v-696q98 10 171 57.5t58 135.5h58v-97q-74 -74 -131.5 -104.5t-155.5 -42.5v-129h-53v129q-156 16 -247 127.5t-91 271.5zM221 694q0 -137 75 -231 t208 -119v696q-104 -16 -160 -61q-123 -100 -123 -285z" />
<glyph unicode="&#xa3;" horiz-adv-x="1009" d="M68 590v47h198q-63 96 -94 169t-31 159q0 176 116 294.5t292 118.5q223 0 350 -200l16 127h37v-342h-37q-14 96 -38.5 158.5t-83.5 115.5q-102 94 -248 94q-147 0 -246.5 -104.5t-99.5 -251.5q0 -61 23.5 -127t45 -100.5t72.5 -110.5h371v-47h-351q49 -82 50 -158 q0 -90 -70 -184q51 0 93 -16.5t61.5 -31t76.5 -59.5q29 -25 55.5 -48t62.5 -40.5t71 -17.5q74 0 111.5 59.5t43.5 138.5h56q-6 -102 -62.5 -174.5t-152.5 -72.5q-55 0 -111.5 33.5t-95.5 73.5t-97.5 74t-117.5 34q-82 0 -134.5 -58.5t-60.5 -142.5h-49q16 190 193 248 q74 96 73 178q0 80 -63 164h-225z" />
<glyph unicode="&#xa4;" horiz-adv-x="1366" d="M164 1184l35 35l180 -181q135 119 303 119q170 0 303 -117l180 179l35 -35l-178 -180q111 -135 111 -297q0 -168 -115 -295l184 -185l-37 -34l-182 182q-131 -115 -301 -115q-160 0 -297 111l-178 -178l-35 34l178 181q-119 137 -119 301q0 160 113 295zM285 709 q0 -166 115.5 -283t281.5 -117q164 0 280.5 117t116.5 281q0 166 -115.5 283.5t-281.5 117.5q-164 0 -280.5 -118t-116.5 -281z" />
<glyph unicode="&#xa5;" horiz-adv-x="1009" d="M-8 1317v49h309v-49h-127l160 -320h319l115 226q27 53 27 69q0 25 -41 25h-6h-74v49h344v-49q-63 0 -90 -4t-53.5 -25.5t-51.5 -73.5l-110 -217h202v-45h-227l-166 -323h324v-45h-328v-537h127v-47h-305v47h123v537h-326v45h324l-166 323h-227v45h204l-163 320h-117z M356 952l136 -272l139 272h-275z" />
<glyph unicode="&#xa7;" horiz-adv-x="894" d="M68 664q0 180 176 264q-80 78 -80 182q0 125 86 200.5t213 75.5q174 0 262 -135v119h51v-323h-24q-31 154 -103 219q-82 76 -192 75q-98 0 -171 -64.5t-73 -160.5q0 -82 44 -129t132 -88l119 -55q43 -20 85 -38t86 -45.5t73 -55.5q75 -77 75 -181q0 -162 -159 -258 q119 -78 118 -215q0 -131 -98 -211t-233 -80q-211 0 -301 156l-23 -119h-33v338h33q12 -68 18.5 -96.5t28 -72.5t55.5 -77q84 -76 216 -75q119 0 200.5 63.5t81.5 179.5q0 70 -36 113t-105 78l-182 84q-49 18 -128 56t-120 71q-92 74 -92 205zM119 655q0 -80 45 -126 t131 -87l328 -149q151 94 151 229q0 47 -14.5 82t-46 62.5t-58 43t-77.5 40.5l-302 145q-158 -72 -157 -240z" />
<glyph unicode="&#xa8;" horiz-adv-x="655" d="M137 1044.5q0 22.5 15.5 39t38 16.5t39 -16.5t16.5 -39t-16.5 -39t-39 -16.5t-38 16.5t-15.5 39zM410 1044.5q0 22.5 16 39t38.5 16.5t38 -16.5t15.5 -39t-15.5 -39t-38 -16.5t-38.5 16.5t-16 39z" />
<glyph unicode="&#xa9;" horiz-adv-x="1611" d="M109 682q0 287 204.5 491.5t491.5 204.5q289 0 492.5 -203.5t203.5 -492.5q0 -287 -204.5 -491.5t-491.5 -204.5t-491.5 204.5t-204.5 491.5zM160 682q0 -266 189.5 -456.5t455.5 -190.5t455.5 189.5t189.5 457.5t-188.5 458.5t-456.5 190.5t-456.5 -190.5t-188.5 -458.5 zM422 678q0 178 110.5 300t286.5 122q166 0 246 -86v63h41v-203h-31v7q-27 178 -246 178q-164 0 -262 -109.5t-98 -275.5q0 -164 110.5 -265.5t276.5 -101.5q219 0 219 168h31v-117l-2 -2q-117 -92 -254 -92q-184 0 -306 115t-122 299z" />
<glyph unicode="&#xaa;" horiz-adv-x="673" d="M98 993q0 82 57.5 133.5t139.5 51.5q92 0 154 -68v98q0 61 -41 92t-107 31q-125 0 -133 -78v-6h-47v86q74 45 172 45q209 0 209 -170v-342h82v-47h-135v53q-74 -63 -164 -63q-80 0 -133.5 52t-53.5 132zM113 608v68h462v-68h-462zM150 989q0 -57 43 -95t102 -38t108.5 36 t49.5 93q0 61 -48.5 103t-109.5 42q-63 0 -104 -38.5t-41 -102.5z" />
<glyph unicode="&#xab;" horiz-adv-x="638" d="M68 381l153 401h64l-154 -401l154 -381h-64zM354 381l154 401h63l-153 -401l153 -381h-63z" />
<glyph unicode="&#xac;" d="M68 496v51h888v-547h-55v496h-833z" />
<glyph unicode="&#xad;" horiz-adv-x="393" d="M0 356v52h393v-52h-393z" />
<glyph unicode="&#xae;" d="M102 1153q0 170 121 290t289 120q170 0 290 -120t120 -290t-121 -290t-289 -120t-289 120t-121 290zM156 1153q0 -147 104.5 -251.5t251.5 -104.5t251.5 104.5t104.5 251.5t-104.5 251.5t-251.5 104.5t-251.5 -104.5t-104.5 -251.5zM385 942v41h33v342h-33v41h115 q55 0 89 -28.5t34 -84.5q0 -45 -27 -76.5t-72 -39.5l107 -154h45v-41h-70l-131 193h-14v-152h35v-41h-111zM461 1176h20q99 -1 99 79q0 70 -80 70h-39v-149z" />
<glyph unicode="&#xaf;" horiz-adv-x="751" d="M137 963v55h477v-55h-477z" />
<glyph unicode="&#xb0;" d="M242 1124.5q0 110.5 79.5 186t190.5 75.5t190.5 -75.5t79.5 -186t-79.5 -186.5t-190.5 -76t-190.5 76t-79.5 186.5zM291 1124.5q0 -92.5 64.5 -155t156.5 -62.5q90 0 155.5 63.5t65.5 153.5t-65.5 153.5t-155.5 63.5q-92 0 -156.5 -62t-64.5 -154.5z" />
<glyph unicode="&#xb1;" d="M68 164v51h888v-51h-888zM68 688v53h417v379h54v-379h417v-53h-417v-379h-54v379h-417z" />
<glyph unicode="&#xb4;" horiz-adv-x="489" d="M137 922l137 252h78l-164 -252h-51z" />
<glyph unicode="&#xb5;" d="M127 -334v1313h55v-584q0 -123 25.5 -200.5t109.5 -131.5q74 -47 175 -47q162 0 250.5 120t88.5 288v555h56v-979h-53v223q-51 -111 -103 -160q-100 -94 -244 -94q-193 0 -305 172v-475h-55z" />
<glyph unicode="&#xb6;" horiz-adv-x="1046" d="M33 997q0 109 58.5 202t158.5 132q86 35 217 35h440v-47h-100v-1532h-51v1532h-252v-1532h-53v846h-35q-164 0 -273.5 100.5t-109.5 263.5z" />
<glyph unicode="&#xb7;" horiz-adv-x="290" d="M68 725q0 33 22.5 55.5t55 22.5t54 -22.5t21.5 -55.5t-21.5 -54.5t-54 -21.5t-55 21.5t-22.5 54.5z" />
<glyph unicode="&#xb8;" horiz-adv-x="425" d="M137 -229l70 161h82l-99 -161h-53z" />
<glyph unicode="&#xba;" horiz-adv-x="673" d="M47 1093.5q0 120.5 84 202.5t205 82t206 -82t85 -202.5t-85 -202.5t-206 -82t-205 82t-84 202.5zM61 608v68h551v-68h-551zM102 1093.5q0 -96.5 69 -168t165 -71.5q98 0 166.5 70.5t68.5 169t-68.5 169t-166.5 70.5q-96 0 -165 -71.5t-69 -168z" />
<glyph unicode="&#xbb;" horiz-adv-x="638" d="M68 0l153 381l-153 401h63l154 -401l-154 -381h-63zM354 0l154 381l-154 401h64l153 -401l-153 -381h-64z" />
<glyph unicode="&#xbf;" horiz-adv-x="790" d="M82 -340q0 188 219 297q37 20 72 35.5t64.5 38t52 47t36 61.5t13.5 82q0 94 -54.5 150.5t-148.5 56.5q-78 0 -141 -45v55q76 39 137 39q115 0 188.5 -72.5t73.5 -187.5q0 -90 -47 -151.5t-114.5 -96.5t-134.5 -69.5t-114 -92t-47 -141.5q0 -104 69.5 -168.5t174.5 -64.5 q217 0 233 301h39v-334h-39l-16 98q-90 -113 -229 -112q-119 0 -203 77.5t-84 196.5zM315 727.5q0 20.5 15.5 35.5t36.5 15q23 0 37 -14t14 -36.5t-14.5 -37t-36.5 -14.5q-20 0 -36 15.5t-16 36z" />
<glyph unicode="&#xc0;" horiz-adv-x="1161" d="M-29 0v47q92 0 108.5 10.5t47.5 94.5l410 1165h-140v49h197l461 -1319h135v-47h-313v47h122l-151 436h-545l-121 -346q-18 -55 -18 -63q0 -27 45 -27h72v-47h-310zM291 1632h84l221 -184h-70zM315 522h519l-261 740z" />
<glyph unicode="&#xc1;" horiz-adv-x="1161" d="M-29 0v47q92 0 108.5 10.5t47.5 94.5l410 1165h-140v49h197l461 -1319h135v-47h-313v47h122l-151 436h-545l-121 -346q-18 -55 -18 -63q0 -27 45 -27h72v-47h-310zM315 522h519l-261 740zM496 1448l223 184h82l-236 -184h-69z" />
<glyph unicode="&#xc2;" horiz-adv-x="1161" d="M-29 0v47q92 0 108.5 10.5t47.5 94.5l410 1165h-140v49h197l461 -1319h135v-47h-313v47h122l-151 436h-545l-121 -346q-18 -55 -18 -63q0 -27 45 -27h72v-47h-310zM315 522h519l-261 740zM315 1448l234 180h51l217 -180h-76l-168 129l-180 -129h-78z" />
<glyph unicode="&#xc3;" horiz-adv-x="1161" d="M-29 0v47q92 0 108.5 10.5t47.5 94.5l410 1165h-140v49h197l461 -1319h135v-47h-313v47h122l-151 436h-545l-121 -346q-18 -55 -18 -63q0 -27 45 -27h72v-47h-310zM315 522h519l-261 740zM319 1491q23 137 127 137q53 0 123 -56t103 -56q55 0 63 86h51 q-16 -141 -120 -142q-51 0 -121 56.5t-101 56.5q-57 0 -73 -82h-52z" />
<glyph unicode="&#xc4;" horiz-adv-x="1161" d="M-29 0v47q92 0 108.5 10.5t47.5 94.5l410 1165h-140v49h197l461 -1319h135v-47h-313v47h122l-151 436h-545l-121 -346q-18 -55 -18 -63q0 -27 45 -27h72v-47h-310zM315 522h519l-261 740zM375 1529.5q0 22.5 16.5 38t39 15.5t38.5 -15.5t16 -38t-16 -38.5t-38.5 -16 t-39 16t-16.5 38.5zM649 1529.5q0 22.5 15.5 38t38 15.5t39 -15.5t16.5 -38t-16.5 -38.5t-39 -16t-38 16t-15.5 38.5z" />
<glyph unicode="&#xc5;" horiz-adv-x="1161" d="M-29 0v47q92 0 108.5 10.5t47.5 94.5l410 1165h-140v49h197l461 -1319h135v-47h-313v47h122l-151 436h-545l-121 -346q-18 -55 -18 -63q0 -27 45 -27h72v-47h-310zM315 522h519l-261 740zM426 1591q0 57 42 98.5t99.5 41.5t98.5 -41t41 -98.5t-41 -99.5t-99 -42 q-59 0 -100 41t-41 100zM477 1591q0 -37 26.5 -63.5t63.5 -26.5t62.5 26.5t25.5 63.5t-25.5 62.5t-62.5 25.5t-63.5 -25.5t-26.5 -62.5z" />
<glyph unicode="&#xc6;" horiz-adv-x="1558" d="M-35 0v47q45 0 70.5 4t47 26.5t30 37t37.5 69.5l589 1133h-133v49h842v-319h-41l-25 270h-538v-590h344v160h47v-371h-47v170h-344v-639h551l22 277h43v-324h-792v47h120v436h-426l-184 -354q-18 -37 -18 -51q0 -29 47 -33t67 2v-47h-309zM387 528h401v779z" />
<glyph unicode="&#xc7;" horiz-adv-x="1247" d="M76 674q0 293 175 499.5t464 206.5q119 0 229 -37q63 -23 99 -49t83 -82v129h48v-321h-29q-18 162 -127 233q-117 78 -289 78q-276 0 -438 -190.5t-162 -470.5q0 -283 182.5 -459t464.5 -176q88 0 186.5 32.5t141.5 94.5q37 51 41 160h29v-183q-186 -154 -412 -153 q-301 0 -493.5 193.5t-192.5 494.5zM604 -279l96 211h80l-125 -211h-51z" />
<glyph unicode="&#xc8;" horiz-adv-x="1034" d="M143 0v47h121v1270h-121v49h779v-319h-39l-25 270h-539v-590h343v160h47v-371h-47v170h-343v-639h551l23 277h43v-324h-793zM324 1632h84l221 -184h-70z" />
<glyph unicode="&#xc9;" horiz-adv-x="1034" d="M143 0v47h121v1270h-121v49h779v-319h-39l-25 270h-539v-590h343v160h47v-371h-47v170h-343v-639h551l23 277h43v-324h-793zM502 1448l221 184h84l-236 -184h-69z" />
<glyph unicode="&#xca;" horiz-adv-x="1034" d="M143 0v47h121v1270h-121v49h779v-319h-39l-25 270h-539v-590h343v160h47v-371h-47v170h-343v-639h551l23 277h43v-324h-793zM307 1448l232 180h53l217 -180h-76l-170 129l-178 -129h-78z" />
<glyph unicode="&#xcb;" horiz-adv-x="1034" d="M143 0v47h121v1270h-121v49h779v-319h-39l-25 270h-539v-590h343v160h47v-371h-47v170h-343v-639h551l23 277h43v-324h-793zM367 1529.5q0 22.5 16 38t38.5 15.5t39 -15.5t16.5 -38t-16.5 -38.5t-39 -16t-38.5 16t-16 38.5zM641 1529.5q0 22.5 15.5 38t38 15.5t39 -15.5 t16.5 -38t-16.5 -38.5t-39 -16t-38 16t-15.5 38.5z" />
<glyph unicode="&#xcc;" horiz-adv-x="608" d="M43 1632h82l223 -184h-69zM158 0v47h116v1270h-116v49h293v-49h-121v-1270h121v-47h-293z" />
<glyph unicode="&#xcd;" horiz-adv-x="608" d="M158 0v47h116v1270h-116v49h293v-49h-121v-1270h121v-47h-293zM221 1448l221 184h82l-233 -184h-70z" />
<glyph unicode="&#xce;" horiz-adv-x="608" d="M53 1448l232 180h53l217 -180h-76l-170 129l-178 -129h-78zM158 0v47h116v1270h-116v49h293v-49h-121v-1270h121v-47h-293z" />
<glyph unicode="&#xcf;" horiz-adv-x="608" d="M113 1529.5q0 22.5 16 38t38.5 15.5t39 -15.5t16.5 -38t-16.5 -38.5t-39 -16t-38.5 16t-16 38.5zM158 0v47h116v1270h-116v49h293v-49h-121v-1270h121v-47h-293zM387 1529.5q0 22.5 15.5 38t38 15.5t39 -15.5t16.5 -38t-16.5 -38.5t-39 -16t-38 16t-15.5 38.5z" />
<glyph unicode="&#xd1;" horiz-adv-x="1445" d="M143 0v47q35 0 61.5 -2t43 12.5t16.5 48.5v1211h-121v49h170l815 -1235v1126q0 43 -15 51.5t-64 8.5h-54v49h308v-49h-42.5t-29 -2t-22.5 -2t-13 -7.5t-10 -10.5t-3 -17t-3 -23.5t2 -34v-40.5v-1180h-31l-834 1260v-1154q0 -43 15.5 -51t64.5 -8h52v-47h-306zM489 1491 q23 137 127 137q53 0 123 -56t103 -56q57 0 61 86h53q-16 -141 -122 -142q-49 0 -118 56.5t-102 56.5q-57 0 -73 -82h-52z" />
<glyph unicode="&#xd2;" horiz-adv-x="1527" d="M76 682q0 289 199.5 492.5t486.5 203.5q289 0 489.5 -203.5t200.5 -492.5t-200.5 -492.5t-489.5 -203.5q-287 0 -486.5 204.5t-199.5 491.5zM129 682q0 -266 185.5 -456.5t449.5 -190.5t448.5 191.5t184.5 455.5q0 266 -184.5 457.5t-448.5 191.5q-266 0 -450.5 -191.5 t-184.5 -457.5zM543 1632h84l221 -184h-70z" />
<glyph unicode="&#xd3;" horiz-adv-x="1527" d="M76 682q0 289 199.5 492.5t486.5 203.5q289 0 489.5 -203.5t200.5 -492.5t-200.5 -492.5t-489.5 -203.5q-287 0 -486.5 204.5t-199.5 491.5zM129 682q0 -266 185.5 -456.5t449.5 -190.5t448.5 191.5t184.5 455.5q0 266 -184.5 457.5t-448.5 191.5q-266 0 -450.5 -191.5 t-184.5 -457.5zM680 1448l221 184h84l-235 -184h-70z" />
<glyph unicode="&#xd4;" horiz-adv-x="1527" d="M76 682q0 289 199.5 492.5t486.5 203.5q289 0 489.5 -203.5t200.5 -492.5t-200.5 -492.5t-489.5 -203.5q-287 0 -486.5 204.5t-199.5 491.5zM129 682q0 -266 185.5 -456.5t449.5 -190.5t448.5 191.5t184.5 455.5q0 266 -184.5 457.5t-448.5 191.5q-266 0 -450.5 -191.5 t-184.5 -457.5zM512 1448l233 180h54l215 -180h-74l-170 129l-178 -129h-80z" />
<glyph unicode="&#xd5;" horiz-adv-x="1527" d="M76 682q0 289 199.5 492.5t486.5 203.5q289 0 489.5 -203.5t200.5 -492.5t-200.5 -492.5t-489.5 -203.5q-287 0 -486.5 204.5t-199.5 491.5zM129 682q0 -266 185.5 -456.5t449.5 -190.5t448.5 191.5t184.5 455.5q0 266 -184.5 457.5t-448.5 191.5q-266 0 -450.5 -191.5 t-184.5 -457.5zM530 1491q23 137 127 137q53 0 123 -56t103 -56q57 0 61 86h53q-16 -141 -123 -142q-49 0 -117.5 56.5t-101.5 56.5q-57 0 -73 -82h-52z" />
<glyph unicode="&#xd6;" horiz-adv-x="1527" d="M76 682q0 289 199.5 492.5t486.5 203.5q289 0 489.5 -203.5t200.5 -492.5t-200.5 -492.5t-489.5 -203.5q-287 0 -486.5 204.5t-199.5 491.5zM129 682q0 -266 185.5 -456.5t449.5 -190.5t448.5 191.5t184.5 455.5q0 266 -184.5 457.5t-448.5 191.5q-266 0 -450.5 -191.5 t-184.5 -457.5zM573 1529.5q0 22.5 16.5 38t37.5 15.5q23 0 39 -15.5t16 -38t-16.5 -38.5t-39 -16t-38 16t-15.5 38.5zM846 1529.5q0 22.5 16.5 38t38.5 15.5q20 0 36.5 -15.5t16.5 -38t-15 -38.5t-37.5 -16t-39 16t-16.5 38.5z" />
<glyph unicode="&#xd8;" horiz-adv-x="1540" d="M76 16l192 199q-63 72 -93 123t-54 137q-33 109 -33 207q0 285 200.5 490.5t483.5 205.5q248 0 455 -170l176 185l39 -39l-176 -183q200 -219 200 -485q0 -289 -202.5 -494.5t-491.5 -205.5q-246 0 -471 190l-188 -196zM143 682q0 -236 162 -428l887 920 q-195 158 -420 157q-262 0 -445.5 -193.5t-183.5 -455.5zM342 215q100 -92 201.5 -136t232.5 -44q264 0 449.5 193.5t185.5 457.5q0 231 -180 449z" />
<glyph unicode="&#xd9;" horiz-adv-x="1357" d="M121 1317v49h305v-49h-129v-817q0 -74 4 -121t24.5 -107.5t59.5 -103.5q119 -133 295 -133q119 0 223.5 71.5t134.5 184.5q23 82 23 209v817h-129v49h305v-49h-121v-821q0 -119 -18.5 -201t-77.5 -154q-133 -156 -342 -155q-133 0 -252 77.5t-158 200.5q-27 84 -26 232 v821h-121zM459 1632h82l223 -184h-72z" />
<glyph unicode="&#xda;" horiz-adv-x="1357" d="M121 1317v49h305v-49h-129v-817q0 -74 4 -121t24.5 -107.5t59.5 -103.5q119 -133 295 -133q119 0 223.5 71.5t134.5 184.5q23 82 23 209v817h-129v49h305v-49h-121v-821q0 -119 -18.5 -201t-77.5 -154q-133 -156 -342 -155q-133 0 -252 77.5t-158 200.5q-27 84 -26 232 v821h-121zM594 1448l223 184h82l-233 -184h-72z" />
<glyph unicode="&#xdb;" horiz-adv-x="1357" d="M121 1317v49h305v-49h-129v-817q0 -74 4 -121t24.5 -107.5t59.5 -103.5q119 -133 295 -133q119 0 223.5 71.5t134.5 184.5q23 82 23 209v817h-129v49h305v-49h-121v-821q0 -119 -18.5 -201t-77.5 -154q-133 -156 -342 -155q-133 0 -252 77.5t-158 200.5q-27 84 -26 232 v821h-121zM428 1448l231 180h54l217 -180h-76l-170 129l-178 -129h-78z" />
<glyph unicode="&#xdc;" horiz-adv-x="1357" d="M121 1317v49h305v-49h-129v-817q0 -74 4 -121t24.5 -107.5t59.5 -103.5q119 -133 295 -133q119 0 223.5 71.5t134.5 184.5q23 82 23 209v817h-129v49h305v-49h-121v-821q0 -119 -18.5 -201t-77.5 -154q-133 -156 -342 -155q-133 0 -252 77.5t-158 200.5q-27 84 -26 232 v821h-121zM487 1529.5q0 22.5 16.5 38t39 15.5t39 -15.5t16.5 -38t-16.5 -38.5t-39 -16t-39 16t-16.5 38.5zM762 1529.5q0 22.5 16.5 38t36.5 15.5q23 0 39 -15.5t16 -38t-16 -38.5t-38.5 -16t-38 16t-15.5 38.5z" />
<glyph unicode="&#xdf;" horiz-adv-x="952" d="M82 0v47h119v893q0 78 2 121t20.5 107.5t52.5 107.5q84 102 220 102q119 0 196.5 -83t77.5 -203q0 -102 -52 -187.5t-145 -138.5q295 -72 295 -371q0 -176 -100 -285.5t-276 -109.5h-43v47h40q156 0 239 91t83 249q0 166 -92 251t-260 85h-51v43q84 4 136 25.5t99 82.5 q76 100 76 213q0 100 -60.5 172t-160.5 72q-84 0 -145.5 -50t-82.5 -132q-16 -63 -16 -197v-905h121v-47h-293z" />
<glyph unicode="&#xe0;" horiz-adv-x="856" d="M102 238q0 113 77 184.5t192 71.5q129 0 225 -113v166q0 92 -60.5 138t-156.5 46q-184 0 -197 -121h-49v109q100 59 236 59q281 0 280 -231v-500h117v-47h-170v88q-106 -102 -240 -102q-109 0 -181.5 71.5t-72.5 180.5zM154 233q0 -86 63.5 -142t151.5 -56q86 0 158.5 54 t72.5 138q0 94 -68.5 155.5t-163 61.5t-154.5 -58t-60 -153zM184 1174h78l137 -252h-53z" />
<glyph unicode="&#xe1;" horiz-adv-x="856" d="M102 238q0 113 77 184.5t192 71.5q129 0 225 -113v166q0 92 -60.5 138t-156.5 46q-184 0 -197 -121h-49v109q100 59 236 59q281 0 280 -231v-500h117v-47h-170v88q-106 -102 -240 -102q-109 0 -181.5 71.5t-72.5 180.5zM154 233q0 -86 63.5 -142t151.5 -56q86 0 158.5 54 t72.5 138q0 94 -68.5 155.5t-163 61.5t-154.5 -58t-60 -153zM322 922l137 252h78l-164 -252h-51z" />
<glyph unicode="&#xe2;" horiz-adv-x="856" d="M102 238q0 113 77 184.5t192 71.5q129 0 225 -113v166q0 92 -60.5 138t-156.5 46q-184 0 -197 -121h-49v109q100 59 236 59q281 0 280 -231v-500h117v-47h-170v88q-106 -102 -240 -102q-109 0 -181.5 71.5t-72.5 180.5zM154 233q0 -86 63.5 -142t151.5 -56q86 0 158.5 54 t72.5 138q0 94 -68.5 155.5t-163 61.5t-154.5 -58t-60 -153zM178 922l189 249h55l176 -249h-66l-139 192l-145 -192h-70z" />
<glyph unicode="&#xe3;" horiz-adv-x="856" d="M102 238q0 113 77 184.5t192 71.5q129 0 225 -113v166q0 92 -60.5 138t-156.5 46q-184 0 -197 -121h-49v109q100 59 236 59q281 0 280 -231v-500h117v-47h-170v88q-106 -102 -240 -102q-109 0 -181.5 71.5t-72.5 180.5zM154 233q0 -86 63.5 -142t151.5 -56q86 0 158.5 54 t72.5 138q0 94 -68.5 155.5t-163 61.5t-154.5 -58t-60 -153zM180 983q4 57 31 99t80 42q41 0 102.5 -54t95.5 -54q55 0 64 84h43q-4 -55 -29.5 -96t-77.5 -41q-45 0 -108.5 55t-91.5 55q-61 0 -66 -90h-43z" />
<glyph unicode="&#xe4;" horiz-adv-x="856" d="M102 238q0 113 77 184.5t192 71.5q129 0 225 -113v166q0 92 -60.5 138t-156.5 46q-184 0 -197 -121h-49v109q100 59 236 59q281 0 280 -231v-500h117v-47h-170v88q-106 -102 -240 -102q-109 0 -181.5 71.5t-72.5 180.5zM154 233q0 -86 63.5 -142t151.5 -56q86 0 158.5 54 t72.5 138q0 94 -68.5 155.5t-163 61.5t-154.5 -58t-60 -153zM197 1044.5q0 22.5 16 39t38.5 16.5t38 -16.5t15.5 -39t-15.5 -39t-38 -16.5t-38.5 16.5t-16 39zM469 1044.5q0 22.5 16.5 39t39 16.5t39 -16.5t16.5 -39t-16.5 -39t-39 -16.5t-39 16.5t-16.5 39z" />
<glyph unicode="&#xe5;" horiz-adv-x="856" d="M102 238q0 113 77 184.5t192 71.5q129 0 225 -113v166q0 92 -60.5 138t-156.5 46q-184 0 -197 -121h-49v109q100 59 236 59q281 0 280 -231v-500h117v-47h-170v88q-106 -102 -240 -102q-109 0 -181.5 71.5t-72.5 180.5zM154 233q0 -86 63.5 -142t151.5 -56q86 0 158.5 54 t72.5 138q0 94 -68.5 155.5t-163 61.5t-154.5 -58t-60 -153zM248 1038q0 57 41 98.5t98 41.5t99 -41.5t42 -98.5q0 -59 -41 -100t-100 -41q-57 0 -98 41t-41 100zM299 1038q0 -37 25.5 -63.5t62.5 -26.5t63.5 26.5t26.5 63.5t-26.5 62.5t-63.5 25.5t-62.5 -25.5t-25.5 -62.5 z" />
<glyph unicode="&#xe6;" horiz-adv-x="1353" d="M84 241.5q0 110.5 77 181.5t187 71q129 0 223 -101v152q0 186 -225 186q-184 0 -186 -123h-43v113q106 57 237 57q229 0 273 -170q111 170 299 170q162 0 253 -110.5t91 -274.5h-643q0 -160 83 -259t240 -99q94 0 164 48t94 136h49v-69q-139 -164 -307 -164 q-197 0 -323 192q-84 -193 -273 -192q-113 0 -191.5 72.5t-78.5 183zM156 246q0 -88 56 -149.5t144 -61.5q92 0 155.5 59.5t63.5 149.5q0 92 -67.5 148.5t-159.5 56.5q-88 0 -140 -57.5t-52 -145.5zM627 438h585q-8 76 -27.5 124t-70.5 93q-84 76 -194 76q-127 0 -203 -81 t-90 -212z" />
<glyph unicode="&#xe7;" horiz-adv-x="841" d="M84 381q0 170 100.5 283.5t268.5 113.5q156 0 249 -100l15 86h39v-254h-54q-8 106 -77.5 163.5t-178.5 57.5q-141 0 -224 -98t-83 -241.5t86 -250t226 -106.5q109 0 179 48t72 153h54v-93q-125 -158 -307 -157q-162 0 -263.5 115.5t-101.5 279.5zM344 -229l70 161h84 l-101 -161h-53z" />
<glyph unicode="&#xe8;" horiz-adv-x="860" d="M84 389q0 160 96 274.5t252 114.5q162 0 252 -110.5t90 -276.5h-631q4 -154 85 -255t231 -101q100 0 169.5 47t92.5 141h53v-61q-129 -176 -321 -176q-164 0 -266.5 118.5t-102.5 284.5zM143 438h580q-4 123 -86 208t-203 85q-123 0 -197.5 -83t-93.5 -210zM254 1174h78 l137 -252h-53z" />
<glyph unicode="&#xe9;" horiz-adv-x="860" d="M84 389q0 160 96 274.5t252 114.5q162 0 252 -110.5t90 -276.5h-631q4 -154 85 -255t231 -101q100 0 169.5 47t92.5 141h53v-61q-129 -176 -321 -176q-164 0 -266.5 118.5t-102.5 284.5zM143 438h580q-4 123 -86 208t-203 85q-123 0 -197.5 -83t-93.5 -210zM391 922 l137 252h78l-164 -252h-51z" />
<glyph unicode="&#xea;" horiz-adv-x="860" d="M84 389q0 160 96 274.5t252 114.5q162 0 252 -110.5t90 -276.5h-631q4 -154 85 -255t231 -101q100 0 169.5 47t92.5 141h53v-61q-129 -176 -321 -176q-164 0 -266.5 118.5t-102.5 284.5zM143 438h580q-4 123 -86 208t-203 85q-123 0 -197.5 -83t-93.5 -210zM219 922 l191 249h53l176 -249h-64l-141 192l-145 -192h-70z" />
<glyph unicode="&#xeb;" horiz-adv-x="860" d="M84 389q0 160 96 274.5t252 114.5q162 0 252 -110.5t90 -276.5h-631q4 -154 85 -255t231 -101q100 0 169.5 47t92.5 141h53v-61q-129 -176 -321 -176q-164 0 -266.5 118.5t-102.5 284.5zM143 438h580q-4 123 -86 208t-203 85q-123 0 -197.5 -83t-93.5 -210zM240 1044.5 q0 22.5 15 39t37.5 16.5t39 -16.5t16.5 -39t-16.5 -39t-39 -16.5t-37.5 16.5t-15 39zM512 1044.5q0 22.5 16.5 39t39 16.5t38 -16.5t15.5 -39t-15.5 -39t-38 -16.5t-39 16.5t-16.5 39z" />
<glyph unicode="&#xec;" horiz-adv-x="495" d="M31 1174h78l137 -252h-53zM104 0v47h113v670h-113v47h168v-717h117v-47h-285z" />
<glyph unicode="&#xed;" horiz-adv-x="495" d="M104 0v47h113v670h-113v47h168v-717h117v-47h-285zM168 922l137 252h78l-164 -252h-51z" />
<glyph unicode="&#xee;" horiz-adv-x="495" d="M25 922l190 249h53l176 -249h-65l-139 192l-146 -192h-69zM104 0v47h113v670h-113v47h168v-717h119v-47h-287z" />
<glyph unicode="&#xef;" horiz-adv-x="495" d="M57 1044.5q0 22.5 15.5 39t38 16.5t39 -16.5t16.5 -39t-16.5 -39t-39 -16.5t-38 16.5t-15.5 39zM104 0v47h113v670h-113v47h168v-717h119v-47h-287zM289 1044.5q0 22.5 16.5 39t39 16.5t37.5 -16.5t15 -39t-15 -39t-37.5 -16.5t-39 16.5t-16.5 39z" />
<glyph unicode="&#xf1;" horiz-adv-x="1001" d="M104 0v47h117v670h-117v47h170v-133q113 147 254 147q113 0 186.5 -73.5t73.5 -188.5v-469h115v-47h-278v47h110v436q0 248 -211 248q-72 0 -134 -43t-91 -110q-25 -53 -25 -150v-381h113v-47h-283zM293 983q4 57 31.5 99t78.5 42q41 0 104.5 -54t94.5 -54q57 0 66 84h41 q-2 -53 -29 -95t-76 -42q-45 0 -108.5 55t-94.5 55q-61 0 -65 -90h-43z" />
<glyph unicode="&#xf2;" horiz-adv-x="966" d="M84 383q0 168 115.5 281.5t283.5 113.5q166 0 282 -114.5t116 -280.5q0 -168 -115 -282.5t-283 -114.5t-283.5 114.5t-115.5 282.5zM143 383q0 -143 98.5 -247.5t242 -104.5t241.5 104.5t98 247.5t-99 246.5t-240.5 103.5t-241 -103.5t-99.5 -246.5zM307 1174h78 l137 -252h-53z" />
<glyph unicode="&#xf3;" horiz-adv-x="966" d="M84 383q0 168 115.5 281.5t283.5 113.5q166 0 282 -114.5t116 -280.5q0 -168 -115 -282.5t-283 -114.5t-283.5 114.5t-115.5 282.5zM143 383q0 -143 98.5 -247.5t242 -104.5t241.5 104.5t98 247.5t-99 246.5t-240.5 103.5t-241 -103.5t-99.5 -246.5zM444 922l138 252h77 l-163 -252h-52z" />
<glyph unicode="&#xf4;" horiz-adv-x="966" d="M84 383q0 168 115.5 281.5t283.5 113.5q166 0 282 -114.5t116 -280.5q0 -168 -115 -282.5t-283 -114.5t-283.5 114.5t-115.5 282.5zM143 383q0 -143 98.5 -247.5t242 -104.5t241.5 104.5t98 247.5t-99 246.5t-240.5 103.5t-241 -103.5t-99.5 -246.5zM272 922l191 249h53 l176 -249h-63l-142 192l-145 -192h-70z" />
<glyph unicode="&#xf5;" horiz-adv-x="966" d="M84 383q0 168 115.5 281.5t283.5 113.5q166 0 282 -114.5t116 -280.5q0 -168 -115 -282.5t-283 -114.5t-283.5 114.5t-115.5 282.5zM143 383q0 -143 98.5 -247.5t242 -104.5t241.5 104.5t98 247.5t-99 246.5t-240.5 103.5t-241 -103.5t-99.5 -246.5zM274 983q4 57 32 99 t79 42q41 0 104.5 -54t96.5 -54q55 0 63 84h41q-2 -55 -27.5 -96t-76.5 -41q-45 0 -108.5 55t-92.5 55q-63 0 -68 -90h-43z" />
<glyph unicode="&#xf6;" horiz-adv-x="966" d="M84 383q0 168 115.5 281.5t283.5 113.5q166 0 282 -114.5t116 -280.5q0 -168 -115 -282.5t-283 -114.5t-283.5 114.5t-115.5 282.5zM143 383q0 -143 98.5 -247.5t242 -104.5t241.5 104.5t98 247.5t-99 246.5t-240.5 103.5t-241 -103.5t-99.5 -246.5zM293 1044.5 q0 22.5 15.5 39t38 16.5t38.5 -16.5t16 -39t-16 -39t-38.5 -16.5t-38 16.5t-15.5 39zM565 1044.5q0 22.5 16.5 39t39 16.5t38 -16.5t15.5 -39t-15.5 -39t-38 -16.5t-39 16.5t-16.5 39z" />
<glyph unicode="&#xf7;" d="M68 645v51h888v-51h-888zM453 278.5q0 24.5 17 42t42 17.5t42 -17.5t17 -42t-17 -43t-42 -18.5t-42 18.5t-17 43zM453 1062.5q0 24.5 17 43t42 18.5t42 -18.5t17 -43t-17 -41.5t-42 -17t-42 17t-17 41.5z" />
<glyph unicode="&#xf8;" horiz-adv-x="972" d="M84 387.5q0 163.5 116.5 277t280.5 113.5q158 0 275 -104l94 94l39 -39l-94 -94q86 -104 86 -258q0 -166 -116 -278.5t-282 -112.5q-141 0 -252 86l-106 -109l-39 39l107 107q-109 115 -109 278.5zM143 385q0 -133 88 -235l484 483q-96 100 -236 100 q-137 0 -236.5 -105.5t-99.5 -242.5zM274 113q92 -82 209 -82q137 0 237.5 104.5t100.5 241.5q0 121 -69 215z" />
<glyph unicode="&#xf9;" horiz-adv-x="972" d="M70 717v47h170v-483q0 -246 209 -246q72 0 135 42t92 109q23 55 22 150v381h-112v47h168v-717h114v-47h-170v135q-109 -150 -254 -149q-113 0 -186.5 74.5t-73.5 187.5v469h-114zM242 1174h77l140 -252h-53z" />
<glyph unicode="&#xfa;" horiz-adv-x="972" d="M70 717v47h170v-483q0 -246 209 -246q72 0 135 42t92 109q23 55 22 150v381h-112v47h168v-717h114v-47h-170v135q-109 -150 -254 -149q-113 0 -186.5 74.5t-73.5 187.5v469h-114zM406 922l139 252h78l-164 -252h-53z" />
<glyph unicode="&#xfb;" horiz-adv-x="972" d="M70 717v47h170v-483q0 -246 209 -246q72 0 135 42t92 109q23 55 22 150v381h-112v47h168v-717h114v-47h-170v135q-109 -150 -254 -149q-113 0 -186.5 74.5t-73.5 187.5v469h-114zM250 922l190 249h54l176 -249h-66l-139 192l-146 -192h-69z" />
<glyph unicode="&#xfc;" horiz-adv-x="972" d="M70 717v47h170v-483q0 -246 209 -246q72 0 135 42t92 109q23 55 22 150v381h-112v47h168v-717h114v-47h-170v135q-109 -150 -254 -149q-113 0 -186.5 74.5t-73.5 187.5v469h-114zM254 1044.5q0 22.5 16.5 39t39 16.5t39 -16.5t16.5 -39t-16.5 -39t-39 -16.5t-39 16.5 t-16.5 39zM528 1044.5q0 22.5 15.5 39t38 16.5t39 -16.5t16.5 -39t-16.5 -39t-39 -16.5t-38 16.5t-15.5 39z" />
<glyph unicode="&#xff;" horiz-adv-x="794" d="M-25 717v47h277v-47h-115l248 -647l266 647h-112v47h280v-47h-112l-428 -1045h208v-47h-286l153 375l-274 717h-105zM207 1044.5q0 22.5 15.5 39t38 16.5t38.5 -16.5t16 -39t-16 -39t-38.5 -16.5t-38 16.5t-15.5 39zM479 1044.5q0 22.5 16.5 39t39 16.5t38 -16.5 t15.5 -39t-15.5 -39t-38 -16.5t-39 16.5t-16.5 39z" />
<glyph unicode="&#x152;" horiz-adv-x="2162" d="M76 678q0 293 194.5 496.5t487.5 203.5q262 0 456 -178q70 -66 107 -128t72 -167v412h-125v49h782v-319h-39l-24 270h-539v-590h342v160h47v-371h-47v170h-342v-639h551l22 277h43v-324h-796v47h125v402q-31 -90 -60.5 -141.5t-89.5 -110.5q-207 -211 -487 -211 q-287 0 -483.5 201.5t-196.5 490.5zM133 678q0 -266 181.5 -454.5t447.5 -188.5q258 0 440 192.5t182 452.5t-182 455.5t-440 195.5q-270 0 -449.5 -190.5t-179.5 -462.5z" />
<glyph unicode="&#x153;" horiz-adv-x="1605" d="M84 379q0 170 120 284.5t290 114.5q152 0 260 -100q53 -47 96 -139q41 102 102 155q96 84 224 84q164 0 255 -111.5t91 -277.5h-643q4 -143 90 -248.5t225 -105.5q94 0 173 54t97 142h45v-71q-139 -174 -311 -174q-143 0 -246 94q-53 47 -102 151q-51 -102 -100 -147 q-109 -98 -265 -98q-164 0 -282.5 114.5t-118.5 278.5zM143 385q0 -145 99.5 -247.5t244.5 -102.5q139 0 239.5 102.5t100.5 241.5q0 143 -99 247.5t-241 104.5q-145 0 -244.5 -100.5t-99.5 -245.5zM881 432h581q-4 123 -85 211t-201 88q-129 0 -204 -83t-91 -216z" />
<glyph unicode="&#x178;" horiz-adv-x="1122" d="M-35 1317v49h309v-49h-127l402 -637l354 545q29 43 29 65q0 27 -39 27h-8h-72v49h344v-49q-92 0 -121.5 -14.5t-77.5 -85.5l-383 -596v-574h125v-47h-303v47h123v574l-438 696h-117zM362 1529.5q0 22.5 16.5 38t39 15.5t39 -15.5t16.5 -38t-16.5 -38.5t-39 -16t-39 16 t-16.5 38.5zM637 1529.5q0 22.5 15.5 38t38 15.5t38.5 -15.5t16 -38t-16 -38.5t-38.5 -16t-38 16t-15.5 38.5z" />
<glyph unicode="&#x2c6;" horiz-adv-x="692" d="M137 922l189 249h55l176 -249h-65l-140 192l-145 -192h-70z" />
<glyph unicode="&#x2dc;" horiz-adv-x="688" d="M137 983q2 57 30 99t81 42q39 0 102.5 -54t95.5 -54q55 0 64 84h43q-4 -55 -29.5 -96t-77.5 -41q-45 0 -108.5 55t-91.5 55q-61 0 -66 -90h-43z" />
<glyph unicode="&#x2000;" horiz-adv-x="865" />
<glyph unicode="&#x2001;" horiz-adv-x="1731" />
<glyph unicode="&#x2002;" horiz-adv-x="865" />
<glyph unicode="&#x2003;" horiz-adv-x="1731" />
<glyph unicode="&#x2004;" horiz-adv-x="577" />
<glyph unicode="&#x2005;" horiz-adv-x="432" />
<glyph unicode="&#x2006;" horiz-adv-x="288" />
<glyph unicode="&#x2007;" horiz-adv-x="288" />
<glyph unicode="&#x2008;" horiz-adv-x="216" />
<glyph unicode="&#x2009;" horiz-adv-x="346" />
<glyph unicode="&#x200a;" horiz-adv-x="96" />
<glyph unicode="&#x2010;" horiz-adv-x="393" d="M0 356v52h393v-52h-393z" />
<glyph unicode="&#x2011;" horiz-adv-x="393" d="M0 356v52h393v-52h-393z" />
<glyph unicode="&#x2012;" horiz-adv-x="393" d="M0 356v52h393v-52h-393z" />
<glyph unicode="&#x2013;" d="M68 645v51h888v-51h-888z" />
<glyph unicode="&#x2014;" horiz-adv-x="1202" d="M0 356v52h1202v-52h-1202z" />
<glyph unicode="&#x2018;" horiz-adv-x="518" d="M170 827l139 539h41l-114 -539h-66z" />
<glyph unicode="&#x2019;" horiz-adv-x="518" d="M170 827l115 539h65l-141 -539h-39z" />
<glyph unicode="&#x201a;" horiz-adv-x="518" d="M170 -397l115 538h65l-141 -538h-39z" />
<glyph unicode="&#x201c;" horiz-adv-x="722" d="M170 827l139 539h41l-114 -539h-66zM375 827l139 539h41l-115 -539h-65z" />
<glyph unicode="&#x201d;" horiz-adv-x="722" d="M170 827l115 539h65l-141 -539h-39zM375 827l114 539h66l-141 -539h-39z" />
<glyph unicode="&#x201e;" horiz-adv-x="722" d="M170 -397l115 538h65l-141 -538h-39zM375 -397l114 538h66l-141 -538h-39z" />
<glyph unicode="&#x2022;" horiz-adv-x="1366" d="M401 696.5q0 116.5 83 201.5t200 85t199 -85t82 -201.5t-82 -201.5t-199 -85t-200 85t-83 201.5z" />
<glyph unicode="&#x2026;" horiz-adv-x="1433" d="M188 36.5q0 20.5 14.5 36t37.5 15.5q20 0 35.5 -15.5t15.5 -36t-15.5 -35.5t-35.5 -15q-23 0 -37.5 15t-14.5 35.5zM666 36.5q0 20.5 15 36t35.5 15.5t36 -15.5t15.5 -36t-15.5 -35.5t-36 -15t-35.5 15t-15 35.5zM1143 36.5q0 20.5 14 36t37 15.5t37 -15.5t14 -36 t-14 -35.5t-37 -15t-37 15t-14 35.5z" />
<glyph unicode="&#x202f;" horiz-adv-x="346" />
<glyph unicode="&#x2039;" horiz-adv-x="352" d="M68 381l153 401h64l-154 -401l154 -381h-64z" />
<glyph unicode="&#x203a;" horiz-adv-x="352" d="M68 0l153 381l-153 401h63l154 -401l-154 -381h-63z" />
<glyph unicode="&#x205f;" horiz-adv-x="432" />
<glyph unicode="&#x2122;" horiz-adv-x="1480" d="M29 1174v192h501v-192h-34l-11 151h-184v-698h70v-39h-181v39h68v698h-182l-13 -151h-34zM616 588v39q23 -4 41.5 -1t18.5 27v672h-60v41h103l280 -651l275 651h117v-41h-64v-698h64v-39h-183v39h74v641l-283 -664l-280 649v-600q0 -25 25.5 -27.5t46.5 1.5v-39h-175z " />
<glyph unicode="&#xe000;" horiz-adv-x="768" d="M0 0v768h768v-768h-768z" />
<glyph unicode="&#xfb01;" horiz-adv-x="995" d="M98 0v47h111v670h-111v47h111v399q0 117 40 160t152 43v-49h-41q-35 0 -55 -11.5t-28.5 -38t-10.5 -46t-2 -58.5v-399h137v-47h-137v-670h137v-47h-303zM606 0v47h111v670h-111v47h166v-717h119v-47h-285zM694 1105.5q0 22.5 15.5 39t38 16.5t39 -16.5t16.5 -39 t-16.5 -38.5t-39 -16t-38 16t-15.5 38.5z" />
<glyph unicode="&#xfb02;" horiz-adv-x="954" d="M98 0v47h111v670h-111v47h111v399q0 117 40 160t152 43v-49h-41q-35 0 -55 -11.5t-28.5 -38t-10.5 -46t-2 -58.5v-399h137v-47h-137v-670h137v-47h-303zM586 0v47h112v1270h-112v49h168v-1319h116v-47h-284z" />
</font>
</defs>
</svg>
